<svg width="18" height="17" viewBox="0 0 18 17" fill="none" xmlns="http://www.w3.org/2000/svg">
<path d="M0.586961 0.673828C0.262782 0.673828 0 0.93662 0 1.26079C0 1.58496 0.262782 1.84775 0.586961 1.84775H2.9287C3.90016 4.2538 4.85704 6.66425 5.8207 9.07471L4.93415 11.2085C4.85988 11.3865 4.88078 11.601 4.98798 11.7612C5.09519 11.9214 5.28553 12.0225 5.4783 12.0217H15.261C15.5711 12.026 15.8563 11.7449 15.8563 11.4348C15.8563 11.1247 15.5711 10.8434 15.261 10.8478H6.35874L6.86623 9.63721L16.2882 8.88518C16.5348 8.86581 16.758 8.67368 16.814 8.43273L17.9879 3.34572C18.0647 3.00309 17.7643 2.62922 17.4132 2.63036H4.50614L3.87026 1.04068C3.7832 0.825495 3.55824 0.673834 3.32611 0.673828H0.586961ZM4.97694 3.80429H16.6734L15.7623 7.75405L6.84177 8.46329L4.97694 3.80429ZM7.43484 12.413C6.36123 12.413 5.4783 13.296 5.4783 14.3696C5.4783 15.4432 6.36123 16.3261 7.43484 16.3261C8.50845 16.3261 9.39138 15.4432 9.39138 14.3696C9.39138 13.296 8.50845 12.413 7.43484 12.413ZM13.3045 12.413C12.2308 12.413 11.3479 13.296 11.3479 14.3696C11.3479 15.4432 12.2308 16.3261 13.3045 16.3261C14.3781 16.3261 15.261 15.4432 15.261 14.3696C15.261 13.296 14.3781 12.413 13.3045 12.413ZM7.43484 13.587C7.87402 13.587 8.21745 13.9304 8.21745 14.3696C8.21745 14.8088 7.87402 15.1522 7.43484 15.1522C6.9957 15.1522 6.65223 14.8088 6.65223 14.3696C6.65223 13.9304 6.9957 13.587 7.43484 13.587ZM13.3045 13.587C13.7436 13.587 14.0871 13.9304 14.0871 14.3696C14.0871 14.8088 13.7436 15.1522 13.3045 15.1522C12.8653 15.1522 12.5218 14.8088 12.5218 14.3696C12.5218 13.9304 12.8653 13.587 13.3045 13.587Z" fill="white"/>
</svg>
