<svg width="14" height="14" viewBox="0 0 14 14" fill="none" xmlns="http://www.w3.org/2000/svg">
<path d="M14 7C14 10.866 10.866 14 7 14C3.13401 14 0 10.866 0 7C0 3.13401 3.13401 0 7 0C10.866 0 14 3.13401 14 7Z" fill="black"/>
<path fill-rule="evenodd" clip-rule="evenodd" d="M7 13.72C10.7114 13.72 13.72 10.7114 13.72 7C13.72 3.28865 10.7114 0.28 7 0.28C3.28865 0.28 0.28 3.28865 0.28 7C0.28 10.7114 3.28865 13.72 7 13.72ZM7 14C10.866 14 14 10.866 14 7C14 3.13401 10.866 0 7 0C3.13401 0 0 3.13401 0 7C0 10.866 3.13401 14 7 14Z" fill="#B80030"/>
<path d="M6.84438 1.5752H7.97454V1.60059H8.15232L8.3428 1.66408V1.68948H8.40629V1.71488H8.43168V1.74027H8.45708L8.46978 1.80377H8.49518L8.52057 1.89266V1.94345H8.54597L8.59676 2.07043L8.60946 2.08313V2.14662H8.63486V2.21012H8.66026L8.67295 2.3117L8.72375 2.40059V2.46408H8.74915V2.55297H8.77454V2.66726H8.81264L8.83803 2.74345V2.83234H8.86343V2.92123H8.88883L8.91422 3.03551L8.93962 3.1752L8.95232 3.18789V3.35297H8.97772V3.46726H8.95232L8.91422 3.37837V3.30218H8.88883V3.18789H8.86343V3.099H8.83803L8.77454 2.94662V2.89583H8.74915V2.78154H8.71105L8.66026 2.65456V2.57837H8.63486L8.62216 2.50218L8.59676 2.48948V2.43869H8.57137L8.54597 2.3752V2.299H8.52057V2.23551H8.49518L8.45708 2.15932L8.43168 2.14662V2.05774H8.40629V2.03234L8.3428 2.07043H8.292V2.09583H8.20311V2.12123H8.15232V2.14662H8.08883V2.22281L8.12692 2.23551L8.13962 2.28631H8.17772V2.3498H8.20311V2.42599H8.22851V2.46408H8.26661L8.292 2.50218V2.57837H8.3174V2.62916L8.35549 2.64186L8.38089 2.69266V2.78154H8.40629V2.83234H8.43168L8.44438 2.88313L8.46978 2.89583V2.94662H8.49518V3.01012H8.52057V3.08631H8.54597V3.21329H8.58407V3.26408H8.60946V3.35297H8.63486V3.49266H8.66026V3.58154H8.68565L8.72375 3.69583L8.73645 3.81012L8.74915 3.83551V4.10218H8.78724V4.12758H8.86343V4.15297H8.88883V4.24186H8.72375V4.21647H8.60946L8.59676 4.20377L8.40629 4.17837L8.36819 4.16567L8.20311 4.15297V4.12758H7.93645V4.10218H7.88565V4.12758H7.74597V4.10218H7.72057V3.98789H7.63169V4.41964H7.65708L7.66978 4.7625L7.68248 4.78789L7.69518 5.07996L7.72057 5.30853V5.47361H7.69518V5.49901L7.63169 5.5117L7.59359 5.49901V5.47361H7.56819L7.5428 5.33393V4.97837H7.5174L7.5047 4.61012L7.492 4.58472L7.46661 4.26726V4.10218H7.33962V4.12758H7.19994V4.10218H7.08565V4.12758H7.06026V4.24186H7.08565V4.55932H7.11105L7.12375 4.90218L7.13645 4.95297L7.16184 5.29583L7.17454 5.33393V5.62599H7.19994V6.09583H7.22534V6.19742H7.19994V6.24821H7.17454V6.27361H7.08565V6.24821H7.06026L7.03486 6.18472L7.00946 5.72758L6.99676 5.63869V5.24504H6.97137L6.95867 4.90218L6.94597 4.86408L6.93327 4.62281L6.90788 4.47043V4.15297H6.88248V4.10218H6.85708V4.12758H6.76819V4.24186H6.79359L6.83168 4.7752L6.84438 5.05456L6.85708 5.07996V5.38472L6.83168 5.42281H6.7428L6.7047 5.38472L6.6793 5.27043L6.66661 5.04186L6.65391 5.01647V4.61012H6.62851L6.61581 4.31805L6.60311 4.29266L6.59042 4.12758H6.48883V4.15297L6.28565 4.16567V4.12758H6.10788V4.15297L5.96819 4.16567L5.9047 4.19107L5.80311 4.20377L5.79041 4.21647H5.67613V4.24186H5.56184V4.26726L5.46026 4.29266L5.42216 4.30535V4.33075H5.48565V4.35615H5.57454V4.38154H5.68883L5.71422 4.39424L5.8793 4.41964L6.05708 4.44504V4.47043H6.24756L6.26026 4.48313L6.37454 4.49583L6.39994 4.52123L6.28565 4.54662L6.27295 4.55932H6.17137L6.08248 4.54662L5.76502 4.53393L5.56184 4.49583L5.44756 4.47043V4.44504H5.35867V4.41964L5.28248 4.40694V4.55932H5.30788V4.83869H5.33327L5.34597 5.01647H5.37137L5.39676 5.13075V5.21964H5.42216V5.33393H5.44756L5.48565 5.39742V5.44821H5.51105V5.5244H5.53645V5.58789L5.58724 5.61329L5.59994 5.67678H5.62534V5.72758H5.65073V5.79107H5.68883V5.81647H5.71422L5.73962 5.90535H5.76502V5.95615H5.79041V5.99424H5.81581V6.01964H5.85391V6.04504H5.8793V6.07043H5.9047L5.9428 6.10853V6.15932H5.99359L6.05708 6.22281V6.24821H6.08248V6.27361H6.10788L6.14597 6.3117V6.3371H6.17137V6.3625H6.19676V6.40059H6.22216V6.42599L6.27295 6.43869L6.31105 6.45139V6.47678H6.37454V6.50218H6.42534V6.54028L6.51422 6.56567V6.59107H6.57772V6.61647H6.62851V6.65456L6.692 6.66726L6.76819 6.67996V6.70535H6.85708L7.06026 6.75615H7.45391L7.55549 6.73075H7.63169V6.70535H7.72057V6.67996H7.82216L7.83486 6.64186L7.92375 6.60377L7.93645 6.59107H7.99994V6.56567L8.05073 6.55297L8.06343 6.52758H8.08883V6.50218H8.13962V6.47678H8.20311V6.45139H8.22851L8.25391 6.40059L8.3174 6.38789V6.3625H8.3428V6.3371H8.38089V6.3117H8.40629V6.27361H8.43168V6.24821H8.45708V6.22281H8.48248L8.49518 6.18472H8.52057V6.15932H8.54597V6.13393H8.57137L8.58407 6.08313L8.60946 6.04504H8.63486V6.01964H8.66026V5.95615H8.68565V5.93075H8.72375L8.73645 5.86726L8.74915 5.82916H8.77454L8.78724 5.77837L8.83803 5.66408H8.86343V5.61329H8.88883V5.5371L8.93962 5.42281L8.95232 5.35932H8.97772V5.27043H9.00311V5.15615H9.02851V5.06726L9.05391 5.01647L9.06661 4.90218H9.092V5.13075H9.06661V5.24504L9.05391 5.27043L9.02851 5.42281L9.00311 5.5117H8.97772V5.58789H8.95232L8.93962 5.67678L8.90153 5.74027L8.88883 5.79107H8.86343V5.84186H8.83803V5.87996H8.81264L8.78724 5.94345L8.77454 5.98154H8.74915V6.01964H8.72375L8.71105 6.07043L8.68565 6.10853H8.66026V6.15932H8.63486V6.19742H8.60946V6.22281H8.58407L8.57137 6.27361H8.54597V6.3117H8.52057V6.3371H8.48248L8.45708 6.38789L8.43168 6.42599L8.38089 6.45139H8.3428V6.47678H8.3174V6.50218H8.292V6.54028H8.26661V6.56567H8.22851V6.59107H8.17772L8.15232 6.65456H8.11422V6.67996H8.08883V6.70535H8.06343V6.73075L7.99994 6.76885H7.97454V6.79424H7.94915V6.81964H7.91105V6.88313H7.88565V6.90853H7.86026V6.93393H7.83486V6.97202H7.80946L7.79676 7.02281H7.77137V7.04821H7.74597V7.1117H7.72057V7.1625H7.69518L7.68248 7.22599L7.65708 7.34028H7.58089V7.36567H7.5174V7.27678H7.5428V7.1625L7.59359 7.04821H7.63169V6.99742H7.65708V6.93393H7.68248V6.90853H7.70788V6.88313H7.74597V6.84504H7.77137V6.81964H7.79676V6.76885H7.74597V6.79424H7.66978V6.81964L7.45391 6.85774L7.33962 6.87043L6.94597 6.88313L6.80629 6.85774V6.88313H6.83168V6.90853H6.85708V6.93393H6.88248V6.95932H6.90788L6.94597 6.99742V7.02281H6.97137V7.07361H6.99676L7.03486 7.1371V7.1625H7.06026V7.21329H7.08565V7.27678H7.11105L7.12375 7.34028H7.14915L7.17454 7.40377V7.47996H7.14915V7.50535L7.06026 7.51805L6.99676 7.41647V7.34028H6.97137V7.31488H6.94597L6.90788 7.25139V7.22599H6.88248V7.1625H6.85708V7.1371H6.83168L6.80629 7.07361H6.76819V7.04821H6.7428V7.02281H6.7174V6.99742L6.66661 6.98472L6.61581 6.93393V6.90853H6.53962V6.88313H6.51422V6.85774L6.45073 6.84504V6.81964H6.42534V6.79424H6.36184V6.76885H6.31105V6.74345L6.26026 6.71805L6.24756 6.67996H6.19676V6.65456L6.12057 6.62916L6.10788 6.59107H6.08248V6.56567H6.01899V6.54028H5.99359V6.50218H5.96819V6.47678H5.9428V6.45139L5.892 6.43869L5.85391 6.42599V6.38789H5.82851V6.3625H5.79041V6.3371H5.76502V6.3117H5.73962V6.27361H5.71422V6.24821H5.68883L5.67613 6.19742H5.65073V6.15932H5.62534V6.13393H5.58724L5.56184 6.05774H5.53645V5.99424L5.48565 5.96885L5.44756 5.90535V5.87996H5.42216V5.81647H5.39676L5.35867 5.75297V5.70218H5.33327V5.65139H5.30788V5.58789H5.28248V5.49901H5.25708L5.24438 5.44821H5.21899V5.35932H5.19359L5.15549 5.18154L5.1301 5.15615V5.04186H5.1047V4.78789H5.0793V3.83551H5.1047V3.46726H5.1301V3.32758L5.15549 3.21329L5.16819 3.099L5.18089 3.08631L5.19359 2.95932H5.21899V2.84504L5.24438 2.75615L5.26978 2.74345L5.28248 2.64186H5.30788V2.48948H5.33327V2.38789L5.39676 2.23551H5.42216V2.12123H5.44756V2.00694H5.48565L5.49835 1.95615L5.51105 1.91805H5.53645V1.89266H5.56184V1.86726L5.65073 1.82916H5.68883V1.80377H5.76502V1.77837L5.96819 1.71488H6.05708V1.68948H6.22216V1.66408L6.38724 1.62599L6.50153 1.61329L6.51422 1.60059H6.84438V1.5752Z" fill="#090104"/>
<path d="M10.1206 6.50195H10.3238V6.52735L10.3618 6.54005V6.56545H10.3872V6.59084H10.4126V6.74322H10.3872V6.81941H10.3618V6.85751L10.3364 6.87021L10.3238 6.9337H10.2984V6.99719H10.273V7.04798H10.2476L10.2349 7.08608H10.2095V7.13687H10.1841V7.20037H10.1587L10.1333 7.27656L10.0952 7.34005H10.0698L10.0571 7.40354L10.0317 7.45433H10.0063V7.47973H9.98089V7.54322H9.9555V7.59402H9.9301L9.9174 7.65751H9.89201V7.68291H9.86661V7.7464H9.84121V7.79719H9.81581L9.80312 7.86068L9.77772 7.91148H9.75232V7.96227H9.72693V8.00037H9.70153L9.68883 8.05116L9.66343 8.11465H9.63804V8.15275H9.61264V8.20354H9.57454V8.22894H9.54915V8.29243H9.52375V8.34322H9.49835V8.36862H9.46026V8.39402L9.40947 8.40672V8.43211H9.38407V8.45751H9.34597V8.48291L9.29518 8.4956V8.521L9.25708 8.5464H9.20629V8.57179H9.18089V8.59719L9.1174 8.66068H9.09201V8.68608H9.06661V8.71148L9.01581 8.74957H8.97772V8.77497H8.95232V8.80037H8.91423V8.82576H8.88883V8.85116H8.86343V8.88925H8.83804V8.91465H8.79994V8.94005H8.77455V8.97814H8.74915V9.00354H8.72375V9.02894H8.68566V9.05433H8.66026V9.09243H8.63486V9.11783H8.60947V9.14322H8.57137V9.16862H8.54597V9.19402H8.52058V9.23211H8.49518V9.28291L8.45708 9.321H8.43169V9.3464H8.40629L8.38089 9.43529H8.3555V9.46068H8.3174V9.48608H8.29201V9.52418H8.25391V9.54957H8.17772V9.57497H8.11423V9.60037H8.06343V9.62576H7.97455V9.66386H7.93645V9.68925H7.86026V9.71465L7.72058 9.76545L7.70788 9.77814H7.63169V9.80354L7.5428 9.82894L7.47931 9.86703L7.40312 9.89243H7.35232V9.91783H7.28883V9.94322L7.19994 9.95592V9.98132H7.13645V10.0067H7.06026V10.0321H6.97137V10.0575L6.85708 10.0956V10.121H6.7682V10.1464H6.69201V10.1718L6.61581 10.1972L6.53962 10.2099V10.2353H6.48883V10.2607H6.42534V10.2861L6.33645 10.3242H6.28566V10.3496H6.17137V10.375H6.10788V10.4004H6.05708L6.04439 10.4385H5.99359V10.4639H5.9174V10.4893L5.87931 10.5147H5.79042V10.5527H5.73962V10.5781H5.68883V10.6035L5.59994 10.6289L5.56185 10.667H5.51105V10.6924H5.42216V10.7305L5.37137 10.7559H5.33328V10.7813H5.28248V10.8067H5.25708V10.8321L5.1682 10.8448L5.1301 10.8067V10.7813H5.1047L5.1301 10.7178H5.19359V10.6924H5.21899V10.667H5.28248V10.6289H5.33328V10.6035H5.39677V10.5781H5.42216V10.5527H5.33328V10.5781H5.23169V10.6035L5.07931 10.6416L5.01581 10.6289V10.6035H4.99042V10.5781H4.96502V10.5527H4.99042V10.5273L5.07931 10.5147V10.4893H5.1682V10.4639H5.25708V10.4385L5.42216 10.375H5.47296V10.3496H5.53645V10.3242L5.58724 10.2988L5.48566 10.3115L5.38407 10.3496H5.28248V10.375L5.1682 10.3877L5.07931 10.4131L4.96502 10.4258L4.87613 10.4385L4.85074 10.4258V10.3877L4.81264 10.375V10.3496H4.78724V10.3115H4.76185V10.2734H4.73645V10.2353H4.71105L4.67296 10.1845V10.1464H4.64756V10.121H4.62216L4.58407 10.0575V10.0321H4.55867V9.98132H4.53328V9.94322H4.50788L4.49518 9.89243H4.46978L4.44439 9.85433V9.81624H4.41899V9.77814H4.39359V9.71465H4.3555V9.66386H4.3301V9.61306H4.3047V9.57497H4.27931L4.24121 9.51148V9.46068H4.21581V9.40989H4.19042V9.3464H4.16502L4.15232 9.25751H4.19042V9.23211H4.21581V9.20672L4.27931 9.16862H4.3047V9.14322H4.3301V9.11783H4.3682V9.09243H4.39359V9.06703L4.44439 9.05433V9.02894H4.48248V9.00354H4.50788V8.97814H4.53328V8.94005H4.55867V8.88925H4.58407L4.60947 8.82576L4.62216 8.80037H4.64756V8.74957H4.67296L4.68566 8.68608L4.73645 8.62259H4.76185V8.57179H4.79994L4.81264 8.5083L4.82534 8.48291H4.85074V8.45751H4.87613V8.43211L4.93962 8.36862H4.96502V8.34322H4.99042V8.29243L5.04121 8.25433H5.07931V8.22894H5.1047V8.20354L5.1682 8.16545H5.19359V8.14005H5.21899V8.11465H5.28248V8.08925H5.30788V8.05116H5.35867V8.02576H5.42216V8.00037L5.53645 7.97497L5.65074 7.93687H5.73962V7.91148H6.33645V7.93687H6.47613V7.91148H6.65391V7.88608L6.79359 7.83529L6.85708 7.82259V7.79719H6.92058V7.77179H6.97137V7.7337L7.02216 7.7083H7.08566V7.68291H7.17455V7.65751L7.25074 7.61941H7.31423V7.59402H7.42851V7.56862H7.49201V7.54322L7.60629 7.53052L7.68248 7.51783V7.47973H7.94915V7.50513L8.01264 7.51783L8.05074 7.54322V7.56862H8.08883V7.59402H8.11423L8.17772 7.7083V7.77179H8.20312V7.91148H8.17772V8.00037H8.15232L8.13962 8.05116L8.11423 8.08925H8.08883V8.11465H8.06343V8.14005H8.03804L8.01264 8.19084L7.97455 8.20354V8.22894H7.92375V8.25433L7.79677 8.31783H7.74597V8.34322H7.70788V8.36862H7.65708V8.39402L7.59359 8.43211H7.5428V8.45751H7.47931V8.48291L7.28883 8.5464H7.19994V8.57179H7.11105V8.59719L6.94597 8.66068H6.88248V8.68608H6.83169V8.71148L6.7174 8.74957V8.77497H6.67931V8.80037H6.62851V8.82576L6.53962 8.88925H6.51423V8.91465H6.48883V8.94005L6.45074 8.97814H6.42534V9.00354H6.38724V9.02894H6.36185V9.05433L6.31105 9.06703V9.09243H6.28566V9.11783H6.26026V9.14322H6.22216V9.16862H6.28566V9.14322H6.36185V9.11783H6.42534V9.09243L6.55232 9.02894H6.60312V9.00354H6.65391V8.97814L6.7047 8.94005H6.7428V8.91465H6.7682V8.88925L6.88248 8.85116V8.82576H6.94597V8.80037H7.00947V8.77497L7.17455 8.72418L7.19994 8.71148H7.28883V8.68608H7.37772V8.66068L7.46661 8.63529L7.5428 8.62259V8.59719H7.60629V8.57179H7.65708V8.5464L7.77137 8.5083V8.48291H7.80947V8.45751H7.86026V8.43211H7.94915V8.45751H7.97455V8.48291H8.01264V8.5083H8.03804L8.06343 8.57179H8.08883V8.59719H8.11423V8.4956H8.08883V8.43211H8.06343V8.34322H8.08883V8.30513H8.11423V8.27973H8.13962V8.25433H8.17772V8.22894H8.20312V8.20354L8.26661 8.14005H8.29201V8.11465H8.3555V8.08925L8.40629 8.05116H8.43169V8.02576H8.45708V8.00037L8.52058 7.96227H8.54597V7.93687H8.59677V7.91148H8.66026V7.88608H8.74915V7.84798L8.83804 7.82259H9.06661V7.77179H9.09201V7.7083H9.1174L9.1301 7.64481L9.18089 7.51783H9.20629V7.47973H9.23169L9.24439 7.42894H9.26978V7.39084H9.29518V7.36545H9.32058V7.34005H9.34597V7.30195H9.37137V7.27656H9.40947V7.25116H9.43486V7.22576H9.48566V7.20037L9.52375 7.16227H9.54915V7.13687H9.57454V7.11148L9.63804 7.08608V7.02259H9.66343V6.9464L9.72693 6.81941H9.75232V6.79402H9.77772L9.79042 6.73052L9.80312 6.70513H9.82851V6.67973H9.86661V6.65433H9.89201V6.62894L9.9301 6.59084H9.98089V6.56545H10.0317L10.0444 6.52735L10.1206 6.50195Z" fill="#7E96A5"/>
<path d="M6.84438 1.5752H7.97454V1.60059H8.15232L8.3428 1.66408V1.68948H8.40629V1.71488H8.43168V1.74027H8.45708L8.46978 1.80377H8.49518L8.52057 1.89266V1.94345H8.54597L8.59676 2.07043L8.60946 2.08313V2.14662H8.63486V2.21012H8.66026L8.67295 2.3117L8.72375 2.40059V2.46408H8.74915V2.55297H8.77454V2.66726H8.81264L8.83803 2.74345V2.83234H8.86343V2.92123H8.88883L8.91422 3.03551L8.93962 3.1752L8.95232 3.18789V3.35297H8.97772V3.46726H8.95232L8.91422 3.37837V3.30218H8.88883V3.18789H8.86343V3.099H8.83803L8.77454 2.94662V2.89583H8.74915V2.78154H8.71105L8.66026 2.65456V2.57837H8.63486L8.62216 2.50218L8.59676 2.48948V2.43869H8.57137L8.54597 2.3752V2.299H8.52057V2.23551H8.49518L8.45708 2.15932L8.43168 2.14662V2.05774H8.40629V2.03234L8.3428 2.07043H8.292V2.09583H8.20311V2.12123H8.15232V2.14662H8.08883V2.22281L8.12692 2.23551L8.13962 2.28631H8.17772V2.3498H8.20311V2.42599H8.22851V2.46408H8.26661L8.292 2.50218V2.57837H8.3174V2.62916L8.35549 2.64186L8.38089 2.69266V2.78154H8.40629V2.83234H8.43168L8.44438 2.88313L8.46978 2.89583V2.94662H8.49518V3.01012H8.52057V3.08631H8.54597V3.21329H8.58407V3.26408H8.60946V3.35297H8.63486V3.49266H8.66026V3.58154H8.68565L8.72375 3.69583L8.73645 3.81012L8.74915 3.83551V4.10218H8.78724V4.12758H8.86343V4.15297H8.88883V4.24186H8.72375V4.21647H8.60946L8.59676 4.20377L8.40629 4.17837L8.36819 4.16567L8.20311 4.15297V4.12758H7.93645V4.10218H7.88565V4.12758H7.74597V4.10218H7.72057V3.9498H7.74597V3.9244H7.86026V3.9625H7.88565V4.01329H8.13962V4.03869H8.45708L8.52057 4.06408L8.50788 3.87361L8.49518 3.86091L8.46978 3.69583L8.45708 3.67043L8.44438 3.55615L8.43168 3.54345V3.41647H8.40629L8.36819 3.28948V3.23869H8.3428V3.1498H8.3174V3.03551H8.292L8.25391 2.97202V2.92123H8.22851V2.85774H8.20311V2.78154H8.17772V2.69266H8.15232L8.11422 2.62916V2.57837H8.08883V2.55297H8.06343L8.01264 2.42599L7.99994 2.3752H7.97454V2.3244H7.94915L7.91105 2.26091V2.23551H7.88565V2.21012L7.77137 2.23551H7.70788V2.26091L7.5428 2.28631L7.28883 2.3244H6.99676V2.3498H5.99359V2.3244H5.79041L5.65073 2.28631L5.59994 2.26091L5.57454 2.3752H5.53645V2.48948H5.51105V2.69266H5.48565V2.80694L5.46026 2.87043L5.44756 2.95932H5.42216V3.099H5.39676V3.23869L5.38407 3.26408L5.37137 3.40377L5.34597 3.53075L5.33327 3.69583H5.30788V4.17837H5.28248V4.20377L5.33327 4.17837H5.37137V4.15297H5.44756V4.12758H5.58724V4.10218L5.67613 4.08948L5.68883 4.07678L5.82851 4.05139H5.8793V4.01329L5.99359 4.00059L6.05708 3.9752L6.19676 3.9625L6.24756 3.9498L6.23486 3.67043L6.22216 3.65774V3.1498H6.19676V3.07361H6.22216V3.01012L6.28565 2.97202H6.36184L6.42534 3.01012V3.07361H6.45073L6.47613 3.69583L6.48883 3.86091V4.15297L6.28565 4.16567V4.12758H6.10788V4.15297L5.96819 4.16567L5.9047 4.19107L5.80311 4.20377L5.79041 4.21647H5.67613V4.24186H5.56184V4.26726L5.46026 4.29266L5.42216 4.30535V4.33075H5.48565V4.35615H5.57454V4.38154H5.68883L5.71422 4.39424L5.8793 4.41964L6.05708 4.44504V4.47043H6.24756L6.26026 4.48313L6.37454 4.49583L6.39994 4.52123L6.28565 4.54662L6.27295 4.55932H6.17137L6.08248 4.54662L5.76502 4.53393L5.56184 4.49583L5.44756 4.47043V4.44504H5.35867V4.41964L5.28248 4.40694V4.55932H5.30788V4.83869H5.33327L5.34597 5.01647H5.37137L5.39676 5.13075V5.21964H5.42216V5.33393H5.44756L5.48565 5.39742V5.44821H5.51105V5.5244H5.53645V5.58789L5.58724 5.61329L5.59994 5.67678H5.62534V5.72758H5.65073V5.79107H5.68883V5.81647H5.71422L5.73962 5.90535H5.76502V5.95615H5.79041V5.99424H5.81581V6.01964H5.85391V6.04504H5.8793V6.07043H5.9047L5.9428 6.10853V6.15932H5.99359L6.05708 6.22281V6.24821H6.08248V6.27361H6.10788L6.14597 6.3117V6.3371H6.17137V6.3625H6.19676V6.40059H6.22216V6.42599L6.27295 6.43869L6.31105 6.45139V6.47678H6.37454V6.50218H6.42534V6.54028L6.51422 6.56567V6.59107H6.57772V6.61647H6.62851V6.65456L6.692 6.66726L6.76819 6.67996V6.70535H6.85708L7.06026 6.75615H7.45391L7.55549 6.73075H7.63169V6.70535H7.72057V6.67996H7.82216L7.83486 6.64186L7.92375 6.60377L7.93645 6.59107H7.99994V6.56567L8.05073 6.55297L8.06343 6.52758H8.08883V6.50218H8.13962V6.47678H8.20311V6.45139H8.22851L8.25391 6.40059L8.3174 6.38789V6.3625H8.3428V6.3371H8.38089V6.3117H8.40629V6.27361H8.43168V6.24821H8.45708V6.22281H8.48248L8.49518 6.18472H8.52057V6.15932H8.54597V6.13393H8.57137L8.58407 6.08313L8.60946 6.04504H8.63486V6.01964H8.66026V5.95615H8.68565V5.93075H8.72375L8.73645 5.86726L8.74915 5.82916H8.77454L8.78724 5.77837L8.83803 5.66408H8.86343V5.61329H8.88883V5.5371L8.93962 5.42281L8.95232 5.35932H8.97772V5.27043H9.00311V5.15615H9.02851V5.06726L9.05391 5.01647L9.06661 4.90218H9.092V5.13075H9.06661V5.24504L9.05391 5.27043L9.02851 5.42281L9.00311 5.5117H8.97772V5.58789H8.95232L8.93962 5.67678L8.90153 5.74027L8.88883 5.79107H8.86343V5.84186H8.83803V5.87996H8.81264L8.78724 5.94345L8.77454 5.98154H8.74915V6.01964H8.72375L8.71105 6.07043L8.68565 6.10853H8.66026V6.15932H8.63486V6.19742H8.60946V6.22281H8.58407L8.57137 6.27361H8.54597V6.3117H8.52057V6.3371H8.48248L8.45708 6.38789L8.43168 6.42599L8.38089 6.45139H8.3428V6.47678H8.3174V6.50218H8.292V6.54028H8.26661V6.56567H8.22851V6.59107H8.17772L8.15232 6.65456H8.11422V6.67996H8.08883V6.70535H8.06343V6.73075L7.99994 6.76885H7.97454V6.79424H7.94915V6.81964H7.91105V6.88313H7.88565V6.90853H7.86026V6.93393H7.83486V6.97202H7.80946L7.79676 7.02281H7.77137V7.04821H7.74597V7.1117H7.72057V7.1625H7.69518L7.68248 7.22599L7.65708 7.34028H7.58089V7.36567H7.5174V7.27678H7.5428V7.1625L7.59359 7.04821H7.63169V6.99742H7.65708V6.93393H7.68248V6.90853H7.70788V6.88313H7.74597V6.84504H7.77137V6.81964H7.79676V6.76885H7.74597V6.79424H7.66978V6.81964L7.45391 6.85774L7.33962 6.87043L6.94597 6.88313L6.80629 6.85774V6.88313H6.83168V6.90853H6.85708V6.93393H6.88248V6.95932H6.90788L6.94597 6.99742V7.02281H6.97137V7.07361H6.99676L7.03486 7.1371V7.1625H7.06026V7.21329H7.08565V7.27678H7.11105L7.12375 7.34028H7.14915L7.17454 7.40377V7.47996H7.14915V7.50535L7.06026 7.51805L6.99676 7.41647V7.34028H6.97137V7.31488H6.94597L6.90788 7.25139V7.22599H6.88248V7.1625H6.85708V7.1371H6.83168L6.80629 7.07361H6.76819V7.04821H6.7428V7.02281H6.7174V6.99742L6.66661 6.98472L6.61581 6.93393V6.90853H6.53962V6.88313H6.51422V6.85774L6.45073 6.84504V6.81964H6.42534V6.79424H6.36184V6.76885H6.31105V6.74345L6.26026 6.71805L6.24756 6.67996H6.19676V6.65456L6.12057 6.62916L6.10788 6.59107H6.08248V6.56567H6.01899V6.54028H5.99359V6.50218H5.96819V6.47678H5.9428V6.45139L5.892 6.43869L5.85391 6.42599V6.38789H5.82851V6.3625H5.79041V6.3371H5.76502V6.3117H5.73962V6.27361H5.71422V6.24821H5.68883L5.67613 6.19742H5.65073V6.15932H5.62534V6.13393H5.58724L5.56184 6.05774H5.53645V5.99424L5.48565 5.96885L5.44756 5.90535V5.87996H5.42216V5.81647H5.39676L5.35867 5.75297V5.70218H5.33327V5.65139H5.30788V5.58789H5.28248V5.49901H5.25708L5.24438 5.44821H5.21899V5.35932H5.19359L5.15549 5.18154L5.1301 5.15615V5.04186H5.1047V4.78789H5.0793V3.83551H5.1047V3.46726H5.1301V3.32758L5.15549 3.21329L5.16819 3.099L5.18089 3.08631L5.19359 2.95932H5.21899V2.84504L5.24438 2.75615L5.26978 2.74345L5.28248 2.64186H5.30788V2.48948H5.33327V2.38789L5.39676 2.23551H5.42216V2.12123H5.44756V2.00694H5.48565L5.49835 1.95615L5.51105 1.91805H5.53645V1.89266H5.56184V1.86726L5.65073 1.82916H5.68883V1.80377H5.76502V1.77837L5.96819 1.71488H6.05708V1.68948H6.22216V1.66408L6.38724 1.62599L6.50153 1.61329L6.51422 1.60059H6.84438V1.5752Z" fill="#F3F4F5"/>
<path d="M7.68248 7.47998H7.94915V7.50538L8.01264 7.51808L8.05074 7.54347V7.56887H8.08883V7.59427H8.11423L8.15232 7.72125L8.16502 7.73395L8.17772 7.84823L8.16502 7.91173H8.15232L8.12693 7.79744L8.11423 7.73395H8.08883V7.70855H8.06343V7.68316H8.03804V7.65776L7.97455 7.63236V7.68316H7.99994L8.02534 7.72125V7.79744H7.97455V7.82284L7.83486 7.88633H7.79677V7.91173H7.72058V7.93712H7.65708V7.96252H7.58089L7.5428 7.86093V7.70855H7.5682V7.68316H7.5174V7.70855H7.47931L7.46661 7.74665V7.94982L7.47931 8.00062H7.45391V8.02601H7.37772V8.05141L7.25074 8.0895H7.19994V8.1149H7.13645V8.1403H7.11105V8.16569H7.08566V8.1149H7.06026V8.0895H7.03486L6.99677 8.05141V8.07681H6.97137V8.17839L6.93328 8.22919H6.90788V8.25458H6.88248V8.27998L6.78089 8.34347H6.7428V8.36887H6.67931V8.39427L6.56502 8.45776H6.53962V8.48316L6.42534 8.52125V8.54665H6.38724V8.57204H6.34915V8.59744H6.31105V8.63554H6.28566V8.66093H6.26026L6.24756 8.71173H6.22216V8.73712H6.19677V8.77522H6.17137V8.80062H6.13328V8.82601H6.10788V8.86411H6.08248V8.8895H6.05708V8.9149H6.01899V8.9403H5.99359V8.96569H5.9682V9.00379H5.9301V9.02919L5.85391 9.05458V9.07998L5.81581 9.11808H5.79042V9.14347H5.73962V9.16887L5.67613 9.20696H5.65074V9.23236H5.59994V9.25776H5.56185V9.28316L5.49835 9.32125H5.47296V9.34665H5.42216V9.37204L5.37137 9.39744H5.33328V9.42284L5.28248 9.43554V9.46093H5.21899V9.48633H5.1682V9.51173L5.1047 9.52443V9.54982H5.05391V9.57522H4.99042V9.60062L4.86343 9.63871L4.81264 9.66411H4.76185V9.6895H4.64756V9.7149H4.53328V9.7403H4.39359V9.7149H4.3555V9.66411H4.3301V9.61331H4.3047V9.57522H4.27931L4.24121 9.51173V9.46093H4.21581V9.41014H4.19042V9.34665H4.16502L4.15232 9.25776H4.19042V9.23236H4.21581V9.20696L4.27931 9.16887H4.3047V9.14347H4.3301V9.11808H4.3682V9.09268H4.39359V9.06728L4.44439 9.05458V9.02919H4.48248V9.00379H4.50788V8.97839H4.53328V8.9403H4.55867V8.8895H4.58407L4.60947 8.82601L4.62216 8.80062H4.64756V8.74982H4.67296L4.68566 8.68633L4.73645 8.62284H4.76185V8.57204H4.79994L4.81264 8.50855L4.82534 8.48316H4.85074V8.45776H4.87613V8.43236L4.93962 8.36887H4.96502V8.34347H4.99042V8.29268L5.04121 8.25458H5.07931V8.22919H5.1047V8.20379L5.1682 8.16569H5.19359V8.1403H5.21899V8.1149H5.28248V8.0895H5.30788V8.05141H5.35867V8.02601H5.42216V8.00062L5.53645 7.97522L5.65074 7.93712H5.73962V7.91173H6.33645V7.93712H6.47613V7.91173H6.65391V7.88633L6.79359 7.83554L6.85708 7.82284V7.79744H6.92058V7.77204H6.97137V7.73395L7.02216 7.70855H7.08566V7.68316H7.17455V7.65776L7.25074 7.61966H7.31423V7.59427H7.42851V7.56887H7.49201V7.54347L7.60629 7.53077L7.68248 7.51808V7.47998Z" fill="#FAFBFB"/>
<path d="M5.59994 2.26074L5.67613 2.28614L5.79041 2.31154L5.99359 2.32423V2.34963H6.94597L6.92057 2.41312L6.90788 2.43852H6.88248V2.48931H6.85708L6.84438 2.55281L6.80629 2.6163L6.79359 2.66709H6.76819V2.71789H6.7428V2.78138H6.7174L6.7047 2.85757L6.66661 2.94646L6.65391 3.03535H6.62851V3.09884L6.59042 3.21312L6.56502 3.32741H6.53962V3.44169H6.51422V3.55598L6.50153 3.58138L6.48883 3.80995L6.46343 3.78455V3.60677L6.45073 3.4036V3.07344H6.42534V3.00995L6.36184 2.98455H6.28565L6.22216 3.00995V3.07344H6.19676V3.14963H6.22216L6.23486 3.65757L6.24756 3.67027V3.94963L6.19676 3.97503L6.05708 3.98773L5.99359 4.01312H5.8793V4.05122L5.79041 4.07662L5.68883 4.08931L5.67613 4.10201H5.58724V4.12741H5.44756V4.15281H5.37137V4.1782L5.28248 4.2036V4.1782H5.30788V3.69566H5.33327V3.53058L5.35867 3.4036L5.37137 3.26392L5.38407 3.23852L5.39676 3.09884H5.42216V2.95915H5.44756V2.87027L5.47295 2.80677L5.48565 2.69249H5.51105V2.48931H5.53645V2.37503H5.57454L5.58724 2.29884L5.59994 2.26074Z" fill="#405C6F"/>
<path d="M3.32692 9.39746H3.35232L3.41581 9.54984V9.60064H3.44121L3.4793 9.68952V9.74032H3.5047V9.80381H3.5301V9.8546H3.55549L3.56819 9.9181H3.59359L3.61899 9.96889V10.007H3.64438V10.0578H3.66978L3.68248 10.1213H3.70788V10.1721H3.73327V10.2102H3.75867V10.261H3.78407L3.84756 10.3752V10.4006H3.87295V10.4387H3.89835L3.93645 10.5022V10.5276H3.96184V10.5784H3.98724V10.6038H4.01264L4.05073 10.6673V10.6927H4.07613V10.7308H4.10153V10.7816H4.12692V10.807H4.15232L4.16502 10.8578H4.19041V10.8959H4.21581V10.9213H4.24121L4.2793 10.9848V11.0102H4.3047V11.0356H4.3301V11.0737H4.35549L4.36819 11.1244H4.39359V11.1498H4.41899V11.1879H4.44438V11.2133H4.46978V11.2387H4.49518L4.50788 11.2895H4.53327V11.3276H4.55867V11.353H4.58407V11.3784L4.62216 11.3911V11.4165H4.64756V11.4419H4.67295V11.4673H4.69835L4.76184 11.5308V11.5562H4.78724L4.79994 11.607L4.87613 11.6451V11.6705H4.90153V11.6959H4.92692L4.93962 11.7467L4.90153 11.7594V11.7848H4.87613V11.8102H4.85073V11.8356L4.79994 11.8737H4.76184V11.899H4.73645V11.9244H4.69835V11.9498H4.67295V11.9752L4.62216 11.9879V12.0133H4.59676V12.0387H4.55867V12.0641L4.50788 12.0768V12.1022H4.48248V12.1276H4.44438V12.153H4.41899V12.1784L4.36819 12.1911V12.2165H4.3301V12.2419H4.3047V12.2673L4.24121 12.3054H4.21581V12.3308H4.19041V12.3562H4.13962V12.3816H4.10153V12.407H4.07613V12.4324L4.01264 12.407L3.98724 12.3562H3.96184V12.3308H3.93645V12.3054L3.89835 12.2927V12.2673H3.87295V12.2419H3.84756V12.2165H3.82216L3.78407 12.1657V12.1276H3.82216V12.153H3.84756V12.1784H3.87295V12.2165H3.91105V12.2419H3.93645V12.2673H4.03803V12.2419H4.07613V12.2165H4.10153V12.1911L4.15232 12.153H4.19041V12.1276H4.21581V12.1022L4.3047 12.0387H4.3301V12.0133H4.35549V11.9879L4.39359 11.9498H4.41899V11.9244H4.45708V11.899H4.49518V11.8737H4.53327V11.8356L4.57137 11.8102H4.60946V11.7848H4.64756V11.7594H4.67295V11.734L4.71105 11.6959H4.73645V11.6705H4.76184V11.6451H4.73645L4.69835 11.607V11.5816H4.67295V11.5562H4.64756V11.5181H4.62216V11.4927H4.59676V11.4673H4.55867V11.4292H4.53327V11.3911H4.50788V11.353H4.46978V11.3276H4.44438V11.2895H4.41899V11.2641H4.39359L4.38089 11.2133H4.35549L4.3301 11.1498H4.3047V11.1244H4.2793L4.21581 11.0356V11.0102H4.19041V10.9848H4.16502L4.13962 10.9213H4.10153V10.8705H4.07613V10.8324H4.05073V10.807H4.02534L4.01264 10.7562H3.98724L3.96184 10.6927H3.93645L3.89835 10.6292V10.6038H3.87295V10.5784H3.84756L3.80946 10.5149V10.4895H3.78407V10.4641H3.75867V10.4133H3.73327V10.3752H3.70788V10.3498H3.68248L3.66978 10.299H3.64438V10.261H3.61899L3.58089 10.1975L3.5301 10.1848V10.2102H3.5047V10.2356H3.5301V10.3117H3.55549L3.59359 10.4387H3.61899V10.4895H3.64438V10.5403H3.66978V10.5784H3.69518L3.73327 10.6927H3.70788V10.6673L3.66978 10.6546V10.6038H3.64438V10.5784H3.61899L3.58089 10.5149V10.4895H3.55549V10.4641H3.5301V10.4133H3.5047V10.3752H3.4793L3.46661 10.3244H3.44121V10.299H3.41581V10.3244H3.39041V10.3498H3.41581V10.4133H3.44121V10.4641H3.46661L3.5047 10.5784H3.5301V10.6419H3.55549V10.6927H3.58089V10.7562L3.55549 10.7435V10.7181H3.5301V10.6673H3.5047L3.4793 10.6038H3.45391L3.44121 10.553H3.41581L3.39041 10.5022V10.4641H3.36502L3.35232 10.4133L3.30153 10.4006V10.4387H3.27613V10.4641H3.30153V10.5276H3.32692V10.5784H3.35232L3.39041 10.6927H3.41581V10.7562H3.44121V10.807H3.41581V10.7816H3.39041L3.35232 10.7181V10.6927H3.32692V10.6419H3.30153V10.6038H3.27613L3.26343 10.553H3.23803L3.22534 10.5276H3.18724V10.6165H3.21264V10.6673H3.23803L3.27613 10.7562L3.30153 10.807V10.8451H3.32692V10.8959H3.35232V10.9467H3.32692V10.9213H3.30153V10.8705H3.27613L3.23803 10.807V10.7816H3.21264V10.7435H3.18724L3.16184 10.7054V10.6673H3.13645L3.09835 10.6292V10.6038H3.07295V10.6292H3.04756V10.6673H3.07295V10.7181H3.09835V10.7816H3.12375L3.16184 10.8578V10.8959H3.18724V10.9467H3.21264L3.23803 11.0356H3.21264V11.0102H3.18724V10.9721H3.16184L3.14914 10.9213H3.12375L3.09835 10.8832V10.8451H3.07295V10.807H3.04756L3.00946 10.7435V10.7181L2.95867 10.7308V10.8197H2.98407V10.8705H3.00946V10.9213H3.03486L3.04756 10.9848H3.07295V11.0356H3.09835V11.099H3.07295V11.061H3.04756L3.03486 11.0102H3.00946V10.9848H2.98407V10.9467H2.95867V10.8959H2.93327L2.89518 10.8451V10.807H2.84438V10.9213H2.86978V10.9721H2.89518L2.95867 11.099V11.1244H2.98407V11.1879H3.00946V11.2387H2.98407V11.2006H2.95867L2.92057 11.1498V11.1244H2.89518V11.0863H2.86978V11.0356H2.84438V11.0102H2.81899L2.80629 10.9467H2.78089V10.9213L2.7301 10.934V11.0102H2.75549V11.061H2.78089L2.81899 11.1498L2.84438 11.1879V11.2387H2.86978V11.2768H2.89518V11.3276H2.86978V11.2895H2.84438V11.2641H2.81899L2.80629 11.2133H2.78089V11.1752H2.75549V11.1244H2.7301V11.099H2.7047L2.66661 11.0356V11.0102H2.64121V10.9721H2.61581L2.59041 10.8959H2.56502L2.55232 10.8451H2.52692V10.807H2.50153V10.7562L2.46343 10.7435L2.43803 10.7054V10.6673H2.41264V10.6038H2.38724L2.34914 10.553V10.5149H2.32375V10.4641H2.29835V10.3752H2.32375V10.3498H2.34914V10.3244L2.38724 10.2863H2.41264V10.261H2.43803V10.2356H2.46343V10.2102L2.52692 10.1848V10.1467H2.55232V10.1213H2.59041V10.0959H2.61581V10.0705L2.66661 10.0578V10.0324H2.692V10.007H2.7174L2.7301 9.96889H2.75549V9.94349H2.78089V9.9181H2.80629V9.8927H2.84438V9.8673H2.86978V9.84191H2.89518L2.90788 9.80381H2.93327V9.77841H2.95867V9.75302H2.98407V9.72762L3.02216 9.68952H3.04756V9.66413H3.07295V9.63873L3.12375 9.62603V9.60064H3.14914V9.57524H3.17454V9.54984H3.21264L3.22534 9.48635L3.23803 9.46095H3.27613V9.43556H3.30153V9.41016L3.32692 9.39746Z" fill="#405C6F"/>
<path d="M10.3872 2.07031H10.5015L10.5523 2.09571V2.12111H10.5904V2.1465H10.6158V2.1846H10.6412V2.23539H10.6666L10.7047 2.31158L10.7301 2.32428V2.37507H10.7555V2.43857H10.7809L10.7936 2.48936H10.819V2.52746H10.8444V2.60365H10.8698V2.66714H10.8952L10.9333 2.80682H10.9587V2.85761H10.9841V2.9465L11.0222 2.9592V3.01H11.0476V3.12428H11.073V3.23857H11.0983L11.111 3.34015L11.1364 3.35285L11.1618 3.44174L11.1745 3.61952L11.1872 3.63222V3.86079H11.2126V4.5846H11.1872V4.86396L11.1745 4.87666L11.1618 5.01634L11.1237 5.15603L11.111 5.16873L11.0983 5.27031H11.073V5.3592H11.0476L11.0349 5.44809L11.0095 5.51158H10.9841V5.58777H10.9587L10.946 5.67666L10.9079 5.76555L10.8952 5.79095H10.8698V5.85444L10.819 5.90523H10.6412V5.87984L10.5904 5.86714L10.5777 5.81634H10.5523V5.61317H10.5777V5.56238L10.6031 5.54968L10.6158 5.49888H10.6412V5.44809H10.6666L10.6793 5.3592L10.7047 5.27031H10.7301V5.18142H10.7555V5.01634H10.7809L10.7936 4.92746L10.819 4.72428L10.8317 4.67349L10.8444 4.44492H10.8698V3.92428H10.8444L10.819 3.72111L10.7936 3.55603L10.7809 3.53063V3.42904H10.7555V3.30206H10.7301L10.692 3.20047V3.12428H10.6666V3.03539H10.6412V2.9465H10.6158V2.89571H10.5777L10.5523 2.84492V2.78142H10.5269L10.4888 2.70523V2.66714H10.4634V2.60365H10.438V2.55285H10.4126V2.51476L10.3618 2.48936L10.3491 2.43857H10.3237V2.37507H10.2983L10.273 2.32428V2.21L10.2983 2.1465H10.3237V2.12111H10.3491V2.09571L10.3872 2.07031Z" fill="#F5F6F7"/>
<path d="M7.5428 9.94336H7.63169V10.1465H7.65708L7.66978 10.2989L7.69518 10.4259L7.72057 10.5402L7.73327 10.6545L7.74597 10.6672V10.7815H7.77137L7.83486 10.8957V10.9465H7.86026V11.01H7.88565V11.0354H7.92375L7.94915 11.0735V11.1243H7.97454V11.1497H7.99994V11.1751L8.03803 11.1878V11.2132H8.06343V11.2386H8.08883V11.264L8.17772 11.2767V11.2386H8.26661V11.264H8.49518L8.52057 11.2767L8.69835 11.2894L8.82534 11.3275V11.3529H8.97772V11.3783H9.04121V11.4037H9.092V11.4418H9.18089V11.4672H9.23169V11.4926H9.26978V11.518H9.29518V11.6703H9.26978L9.24438 11.7211L9.20629 11.7338V11.7592L9.15549 11.7846H9.092V11.81L9.01581 11.8481H8.97772V11.8735L8.88883 11.8989H8.77454V11.9243H8.66026V11.9497L8.52057 11.9878L8.3428 12.0005L8.3174 12.0132H8.17772V12.0386L7.86026 12.0767L7.11105 12.0894L6.65391 12.0767L6.56502 12.0513L6.34915 12.0386V12.0132H6.19676V11.9878H6.08248V11.9624L5.99359 11.9497L5.9428 11.9243V11.8989H5.8793V11.8735L5.82851 11.8608V11.8354L5.76502 11.81V11.6957H5.79042V11.6703H5.82851L5.84121 11.6195L5.8793 11.6069V11.5815H5.9428V11.5561H5.99359V11.518H6.05708V11.4926H6.17137V11.4672H6.24756V11.4418L6.37454 11.4037L6.46343 11.391L6.47613 11.3783H6.60311V11.3529H6.7428V11.3275H6.83169V11.3529H6.78089V11.3783L6.6793 11.4037L6.53962 11.4418H6.42534V11.4672H6.31105V11.4926L6.23486 11.5307H6.19676V11.5561H6.14597V11.5815H6.08248V11.6195H6.05708V11.7465H6.08248V11.7846H6.10788V11.81H6.19676V11.8354L6.26026 11.8481L6.36184 11.8862L6.56502 11.8989V11.9243H6.81899L6.83169 11.937H7.59359L7.65708 11.9243H8.05073V11.8989L8.22851 11.8862L8.24121 11.8735L8.43169 11.8481L8.45708 11.8354L8.58407 11.8227L8.59676 11.81H8.66026V11.7846L8.77454 11.7592L8.91423 11.6957H8.97772V11.6703H9.01581V11.6449H9.04121V11.6195H9.06661L9.05391 11.5307L9.04121 11.4926H8.97772V11.5307H8.95232V11.5561H8.90153V11.5815H8.74915V11.6069L8.57137 11.6449L8.49518 11.6703H8.38089V11.6957H8.20311V11.7211L7.97454 11.7338L7.94915 11.7465L7.492 11.7719H7.17454L7.22534 11.7592V11.7338L7.35232 11.7084L7.40311 11.6957V11.6703L7.5428 11.6576L7.55549 11.6449H7.63169V11.6195L7.72057 11.6069V11.5815H7.77137V11.5561H7.80946V11.5307L7.86026 11.518V11.4926H7.88565V11.4672H7.92375L7.91105 11.4164L7.88565 11.4037V11.3783H7.86026V11.3529H7.82216V11.3275H7.79676V11.2894H7.77137V11.2386H7.74597V11.1243H7.72057L7.66978 10.9465L7.65708 10.9211V10.8449H7.63169V10.718H7.60629L7.59359 10.5783L7.58089 10.5529L7.55549 10.3497L7.5428 10.3243V10.0957H7.5174V9.96876H7.5428V9.94336Z" fill="#F5F6F6"/>
<path d="M3.91105 9.15625L3.93644 9.16895V9.23244H3.96184V9.30863H3.98724V9.37212H4.01264L4.05073 9.46101V9.51181H4.07613V9.5753H4.10152V9.60069H4.12692L4.13962 9.66419H4.16502V9.71498H4.19041V9.77847H4.21581L4.2793 9.89276V9.91815H4.3047V9.94355H4.3301L4.35549 9.99435V10.0324H4.39359V10.0832H4.41898V10.1213H4.44438L4.50787 10.2102V10.261H4.53327V10.2864H4.55867V10.3245H4.59676V10.3499H4.62216V10.4007H4.64756V10.4388H4.67295V10.4642H4.69835L4.73644 10.515V10.5531H4.76184V10.5785H4.78724V10.6039H4.81264L4.82533 10.6547H4.85073V10.6928H4.87613V10.7182H4.90152L4.93962 10.7563V10.807H4.96502V10.8324H4.99041V10.8705H5.01581V10.8959H5.05391V10.9213H5.0793V10.9467H5.1047V10.9848H5.1301V11.0356H5.19359V11.0991H5.21898V11.1245H5.25708V11.1499H5.28248V11.1753H5.30787V11.2388H5.28248V11.2642L5.21898 11.3023H5.19359V11.3277H5.16819V11.3531H5.1301V11.3785H5.1047V11.4039L5.05391 11.4166V11.442H5.01581V11.4674H4.96502V11.4928H4.93962V11.4674H4.87613V11.4293H4.85073V11.4039H4.82533L4.81264 11.3531H4.78724V11.3277H4.76184V11.3023H4.73644L4.71105 11.2388H4.67295V11.188H4.64756V11.1499H4.62216V11.1245H4.59676L4.55867 11.0737V11.0356H4.53327V11.0102H4.50787L4.44438 10.9213V10.8959H4.41898V10.8705H4.39359L4.35549 10.807V10.7816H4.3301V10.7436H4.3047L4.292 10.7055L4.2666 10.6928V10.6674H4.24121V10.6293H4.21581V10.5785H4.19041V10.5531H4.16502L4.12692 10.5023V10.4642H4.10152V10.4134H4.07613V10.388L4.03803 10.3753L4.01264 10.2991H3.98724V10.261H3.96184L3.91105 10.1721L3.89835 10.1213H3.87295V10.0578H3.84756V10.007H3.80946L3.78406 9.95625V9.91815H3.75867V9.86736H3.73327L3.70787 9.77847H3.68248L3.66978 9.68958H3.64438V9.63879H3.61898V9.5753H3.58089L3.55549 9.5245V9.46101H3.59359L3.60629 9.41022L3.64438 9.39752V9.37212H3.66978V9.34673H3.70787V9.32133L3.75867 9.30863V9.28323H3.78406V9.25784H3.80946V9.23244H3.84756V9.19435H3.87295V9.16895L3.91105 9.15625Z" fill="#F3F4F5"/>
<path d="M9.86661 2.55273H9.9555V2.57813H10.0063V2.60353H10.0317V2.62892L10.0698 2.64162V2.69242H10.0952V2.71781H10.1206L10.1587 2.78131V2.8067H10.1841V2.87019H10.2095V2.92099H10.2476L10.273 2.97178V3.03527H10.2984V3.09877H10.3237V3.14956H10.3491V3.23845H10.3745L10.3872 3.32734H10.4126V3.41623H10.438V3.50512L10.4761 3.51781L10.5015 3.6067V3.72099H10.5269V3.92416H10.5523V4.4448H10.5269V4.69877H10.5015V4.81305H10.4761L10.4634 4.95273L10.438 5.04162H10.4126V5.13051H10.3872V5.194L10.3364 5.28289L10.3237 5.33369H10.2984V5.39718H10.273V5.44797H10.2349V5.47337L10.1587 5.51146L10.0698 5.49877L10.0444 5.44797H10.0063V5.42258H9.98089V5.194H10.0063V5.13051H10.0317L10.0571 5.04162L10.0698 4.99083H10.0952V4.87654L10.1079 4.86385L10.1206 4.76226L10.146 4.69877L10.1714 4.58448L10.1841 4.33051H10.2095V4.06385H10.1841V3.78448H10.1587L10.1079 3.54321L10.0952 3.53051V3.44162H10.0698L10.0063 3.30194V3.23845H9.98089V3.18766H9.9555V3.12416H9.9174L9.892 3.07337V3.00988H9.86661V2.98448H9.84121L9.81581 2.93369V2.89559H9.77772V2.8448H9.75232V2.64162H9.77772V2.60353H9.81581V2.57813H9.86661V2.55273Z" fill="#F3F5F6"/>
<path d="M7.08566 1.71484H7.79677L8.11423 1.75294V1.77834H8.22851V1.80373H8.3174V1.84183H8.3428V1.89262H8.3174V1.91802L8.20312 1.96881L8.12693 2.00691H8.08883V2.0323L7.93645 2.045L7.92375 2.0577L7.72058 2.0958L7.65709 2.12119H7.5174V2.14659L7.36502 2.15929L7.35232 2.17199L7.17455 2.19738L6.69201 2.21008H6.43804L6.05709 2.19738L6.01899 2.18469L5.85391 2.17199V2.14659H5.67613V2.12119H5.62534V2.0958H5.58724V2.0323H5.61264L5.62534 1.99421H5.65074V1.96881L5.68883 1.94342H5.73962V1.91802H5.87931V1.89262H5.9682V1.86722H6.08248V1.84183L6.22216 1.82913V1.80373H6.36185V1.77834H6.53962V1.75294L7.08566 1.71484Z" fill="#405C6F"/>
<path d="M10.1206 6.50195H10.3237V6.52735L10.3618 6.54005L10.3745 6.59084H10.3237V6.61624H10.2984V6.64164L10.2603 6.67973H10.2349V6.70513H10.2095V6.73052H10.1841V6.75592L10.146 6.79402H10.1206V6.81941H10.0952V6.85751H10.0698L10.0571 6.9083H10.0317V6.9337H10.0063V6.9591H9.98089V6.99719H9.95549L9.9428 7.04798H9.9174L9.892 7.11148H9.86661V7.16227H9.84121V7.18767L9.80311 7.22576H9.77772V7.26386H9.75232V7.30195H9.72692V7.34005H9.70153L9.66343 7.41624H9.63803V7.45433H9.61264V7.47973H9.58724L9.57454 7.53052H9.54915V7.56862H9.52375V7.59402H9.49835L9.47295 7.65751L9.46026 7.68291H9.43486V7.7083H9.40946V7.7464H9.38407L9.37137 7.79719H9.34597V7.82259H9.32057V7.86068H9.29518L9.28248 7.91148H9.25708V7.93687H9.23168V7.96227H9.20629V8.00037H9.16819V8.02576H9.1301V8.05116H9.092V8.07656L9.02851 8.11465H8.97772V8.14005H8.93962V8.16545H8.88883V8.19084L8.83803 8.20354V8.22894H8.79994V8.25433H8.74915V8.27973L8.68565 8.31783H8.66026V8.34322L8.59676 8.36862H8.54597V8.39402L8.48248 8.43211H8.45708V8.45751H8.40629V8.48291L8.3428 8.521H8.3174V8.5464H8.2793V8.57179H8.22851V8.59719H8.20311V8.62259L8.15232 8.63529L8.12692 8.5464V8.4956H8.08883V8.43211H8.06343V8.34322H8.08883V8.30513H8.11422V8.27973H8.13962V8.25433H8.17772V8.22894H8.20311V8.20354L8.26661 8.14005H8.292V8.11465H8.35549V8.08925L8.40629 8.05116H8.43168V8.02576H8.45708V8.00037L8.52057 7.96227H8.54597V7.93687H8.59676V7.91148H8.66026V7.88608H8.74915V7.84799L8.83803 7.82259H9.06661V7.77179H9.092V7.7083H9.1174L9.1301 7.64481L9.18089 7.51783H9.20629V7.47973H9.23168L9.24438 7.42894H9.26978V7.39084H9.29518V7.36545H9.32057V7.34005H9.34597V7.30195H9.37137V7.27656H9.40946V7.25116H9.43486V7.22576H9.48565V7.20037L9.52375 7.16227H9.54915V7.13687H9.57454V7.11148L9.63803 7.08608V7.02259H9.66343V6.9464L9.72692 6.81941H9.75232V6.79402H9.77772L9.79041 6.73052L9.80311 6.70513H9.82851V6.67973H9.86661V6.65433H9.892V6.62894L9.9301 6.59084H9.98089V6.56545H10.0317L10.0444 6.52735L10.1206 6.50195Z" fill="#F8F9F9"/>
<path d="M10.3618 6.64209L10.3872 6.65479L10.3745 6.76907L10.3237 6.93415H10.2983V6.99765H10.273V7.04844H10.2476L10.2349 7.08653H10.2095V7.13733H10.1841V7.20082H10.1587L10.1333 7.27701L10.0952 7.3405H10.0698L10.0571 7.40399L10.0317 7.45479H10.0063V7.48019H9.98089V7.54368H9.95549V7.59447H9.9301L9.9174 7.65796H9.892V7.68336H9.8666V7.74685H9.84121V7.79765H9.81581L9.80311 7.86114L9.77771 7.91193H9.75232V7.96272H9.72692V8.00082H9.70152L9.68883 8.05161L9.66343 8.11511H9.63803V8.1532H9.61263V8.20399H9.57454V8.22939H9.54914V8.29288H9.52375V8.34368H9.49835V8.36907H9.46025V8.39447L9.40946 8.40717V8.43257H9.38406V8.45796H9.34597V8.48336L9.29517 8.49606V8.52145L9.25708 8.54685H9.20629V8.57225H9.18089V8.59765L9.1174 8.66114H9.092V8.68653H9.0666V8.71193L9.01581 8.75003H8.97771V8.77542H8.95232V8.80082H8.91422V8.82622H8.88883V8.85161H8.86343V8.88971H8.83803V8.91511H8.79994V8.9405H8.77454V8.9786H8.74914V9.00399H8.72375V9.02939H8.68565V9.05479H8.66025V9.09288H8.63486V9.11828H8.60946V9.14368H8.57136V9.16907H8.54597V9.19447H8.52057V9.23257H8.49517V9.28336L8.45708 9.32146H8.43168V9.34685H8.40629L8.38089 9.43574H8.35549V9.46114H8.3174V9.48653H8.292V9.52463H8.2539V9.55003H8.17771V9.57542H8.11422V9.60082H8.06343V9.62622H7.97454V9.66431H7.93644V9.68971H7.86025V9.71511L7.72057 9.7659L7.70787 9.7786H7.63168V9.80399L7.54279 9.82939L7.4793 9.86749L7.40311 9.89288H7.35232V9.91828H7.28883V9.94368L7.19994 9.95638V9.98177H7.13644V10.0072H7.06025V10.0326H6.97136V10.058L6.85708 10.0961V10.1215H6.76819V10.1469H6.692V10.1722L6.61581 10.1976L6.53962 10.2103V10.2357H6.48883V10.2611H6.42533V10.2865L6.33644 10.3246H6.28565V10.35H6.17136V10.3754H6.10787V10.4008H6.05708L6.04438 10.4389H5.99359V10.4643H5.9174V10.4897L5.8793 10.5151H5.79041V10.5532H5.73962V10.5786H5.68883V10.604L5.59994 10.6294L5.56184 10.6675H5.51105V10.6929H5.42216V10.731L5.37136 10.7564H5.33327V10.7818H5.28248V10.8072H5.25708V10.8326L5.16819 10.8453L5.1301 10.8072V10.7818H5.1047L5.1301 10.7183H5.19359V10.6929H5.21898V10.6675H5.28248V10.6294H5.33327V10.604H5.39676V10.5786H5.44756V10.5532L5.56184 10.5151L5.59994 10.4897H5.65073V10.4643H5.70152V10.4389H5.76502V10.4135L5.84121 10.3754H5.8793V10.35H5.95549V10.3246H6.01898V10.2992L6.10787 10.2611H6.14597V10.2357H6.22216V10.2103H6.28565V10.1849L6.36184 10.1469H6.42533V10.1215H6.48883V10.0961L6.62851 10.058V10.0326H6.7047V10.0072H6.76819V9.98177L6.88248 9.94368L6.93327 9.91828H6.99676V9.89288H7.06025V9.86749L7.17454 9.82939L7.22533 9.80399H7.28883V9.7786H7.33962V9.7532L7.42851 9.7278L7.492 9.71511V9.68971H7.56819V9.66431H7.63168V9.63892L7.74597 9.60082H7.79676V9.57542H7.86025V9.55003H7.92375V9.52463L8.01263 9.48653H8.06343V9.46114H8.11422V9.43574H8.15232V9.41034L8.20311 9.39765V9.37225H8.22851V9.34685H8.2539L8.2666 9.29606H8.292V9.25796H8.3174V9.23257H8.34279V9.20717L8.38089 9.16907H8.40629V9.14368H8.43168L8.46978 9.06749H8.49517V9.02939H8.52057V9.00399H8.54597V8.9786L8.60946 8.91511H8.63486V8.88971H8.66025V8.86431L8.72375 8.80082H8.74914V8.77542L8.81263 8.73733L8.86343 8.71193V8.68653H8.88883V8.66114H8.91422V8.63574L8.95232 8.59765H8.97771V8.57225H9.01581V8.54685L9.0666 8.50876H9.092V8.48336H9.1174V8.45796H9.15549V8.43257H9.20629V8.40717L9.26978 8.36907H9.29517V8.34368H9.32057V8.31828L9.38406 8.28019L9.40946 8.22939H9.43486V8.20399H9.46025L9.48565 8.1405L9.49835 8.11511H9.52375V8.06431H9.54914V8.02622H9.57454L9.61263 7.91193H9.63803V7.87384H9.66343L9.67613 7.82304L9.70152 7.77225H9.72692V7.72145H9.75232V7.68336H9.77771L9.79041 7.63257L9.81581 7.56907H9.84121V7.51828H9.8666V7.48019H9.892V7.42939H9.9174L9.9301 7.3659H9.95549V7.31511H9.98089V7.27701H10.0063L10.0317 7.20082L10.0444 7.17542H10.0698V7.13733H10.0952V7.08653H10.1206L10.1333 7.02304H10.1587L10.1714 6.97225L10.1841 6.93415H10.2095V6.88336H10.2349L10.2476 6.81987H10.273V6.76907H10.2983V6.71828H10.3237V6.68019H10.3491L10.3618 6.64209Z" fill="#F0F1F2"/>
<path d="M9.35867 3.03564H9.49835V3.06104H9.52375V3.09914H9.54914V3.12453H9.57454V3.14993H9.61263L9.63803 3.18803V3.23882H9.66343V3.26422H9.68882L9.70152 3.32771H9.72692V3.3785H9.75232V3.44199H9.77771L9.81581 3.51818V3.58168H9.84121V3.64517H9.8666V3.78485H9.892L9.9047 3.89914H9.93009L9.94279 4.11501L9.95549 4.1785L9.94279 4.2166L9.93009 4.47057L9.892 4.67374H9.8666V4.76263H9.84121V4.85152H9.81581V4.90231H9.77771V4.9912H9.75232V5.04199H9.72692V5.08009L9.68882 5.10549H9.54914V5.08009H9.52375V5.04199H9.48565L9.46025 4.9912V4.81342H9.48565L9.49835 4.74993H9.52375V4.69914H9.54914V4.61025L9.56184 4.58485L9.57454 4.40707L9.58724 4.38168V4.01342L9.57454 4.00072V3.87374H9.54914V3.75945H9.52375V3.69596H9.49835L9.46025 3.61977V3.55628H9.43486V3.50549H9.40946V3.46739H9.38406L9.34597 3.3912V3.3531H9.32057V3.32771H9.29517V3.09914H9.32057V3.06104H9.35867V3.03564Z" fill="#F6F7F7"/>
<path d="M6.10788 4.12744H6.28565V4.16554L6.33645 4.15284H6.48883L6.50153 4.33062L6.51422 4.39411V4.71157H6.53962L6.55232 5.13062L6.56502 5.15601L6.57772 5.44808L6.60311 5.72744L6.61581 5.99411L6.62851 6.0322V6.18458L6.60311 6.24808L6.56502 6.27347H6.47613V6.24808H6.45073V6.22268H6.42534V5.99411H6.39994L6.38724 5.63855L6.37454 5.58776L6.34915 5.10522L6.33645 5.01633V4.64808H6.31105V4.62268L5.77772 4.60998L5.76502 4.59728L5.59994 4.58458V4.55919H5.49835L5.37137 4.50839L5.33327 4.4957V4.4703H5.28248V4.40681L5.35867 4.4195V4.4449H5.44756V4.4703H5.53645L5.62534 4.4957L5.76502 4.52109L6.08248 4.53379L6.17137 4.54649H6.27295L6.28565 4.53379L6.37454 4.52109V4.50839L6.26026 4.4957L6.24756 4.483L6.05708 4.4703V4.4449H5.9428L5.82851 4.4195L5.71422 4.40681L5.68883 4.39411L5.57454 4.38141V4.35601H5.48565V4.33062H5.42216V4.30522L5.48565 4.26712H5.56184V4.24173H5.67613V4.21633L5.79041 4.20363L5.80311 4.19093L5.9428 4.16554L5.96819 4.15284H6.10788V4.12744Z" fill="#B80030"/>
<path d="M6.85708 2.87061H6.94597V2.896H6.97137V2.9214H6.99677L7.00946 3.40394L7.02216 3.44203L7.03486 3.75949L7.06026 3.94997V4.24203H7.08565V4.55949H7.11105L7.12375 4.90235L7.13645 4.95315L7.16185 5.296L7.17454 5.3341V5.62616H7.19994V6.096H7.22534V6.19759H7.19994V6.24838H7.17454V6.27378H7.08565V6.24838H7.06026L7.03486 6.18489L7.00946 5.72775L6.99677 5.63886V5.24521H6.97137L6.95867 4.90235L6.94597 4.86426L6.93327 4.62299L6.90788 4.47061V4.15315H6.88248V3.87378H6.85708L6.84438 3.37854L6.83169 3.35315L6.81899 3.14997L6.80629 3.12457V2.9214L6.81899 2.896H6.85708V2.87061Z" fill="#B80030"/>
<path d="M4.05074 10.1846H4.07613V10.2227H4.10153V10.2608L4.15232 10.2862L4.16502 10.3243H4.19042V10.3496H4.21581V10.375H4.25391V10.4004L4.3047 10.4131V10.4385H4.3301V10.4004H4.3047V10.3496H4.27931L4.24121 10.2608V10.1973L4.27931 10.21V10.2354H4.3047V10.2608H4.3301L4.39359 10.3496V10.375H4.41899V10.4004H4.44439L4.48248 10.4385V10.4639H4.50788V10.4893H4.53328V10.5401L4.57137 10.5528V10.5782H4.59677V10.6036H4.62216V10.6417H4.64756V10.6925L4.69835 10.7179L4.71105 10.756H4.73645V10.7814H4.76185V10.8068H4.78724L4.79994 10.8576H4.82534V10.8957H4.85074V10.9211H4.87613V10.9465H4.90153L4.93962 11.01V11.0354H4.96502V11.0608H4.99042L5.02851 11.1243V11.1496H5.05391V11.302H5.02851V11.3274H5.00312V11.3528H4.87613L4.90153 11.4163L4.91423 11.4671H4.87613V11.429H4.85074V11.4036H4.82534L4.81264 11.3528H4.78724V11.3274H4.76185V11.302H4.73645L4.71105 11.2385H4.67296V11.1877H4.64756V11.1496H4.62216V11.1243H4.59677L4.55867 11.0735V11.0354H4.53328V11.01H4.50788L4.44439 10.9211V10.8957H4.41899V10.8703H4.39359L4.3555 10.8068V10.7814H4.3301V10.7433H4.3047L4.29201 10.7052L4.26661 10.6925V10.6671H4.24121V10.629H4.21581V10.5782H4.19042V10.5528H4.16502L4.12693 10.502V10.4639H4.10153L4.11423 10.4131L4.15232 10.4258L4.12693 10.375V10.3243H4.10153V10.2862H4.07613V10.2354H4.05074V10.1846Z" fill="#7F96A5"/>
<path d="M8.74914 4.41943L8.81264 4.43213L8.82533 4.55912V4.90197L8.79994 5.18134L8.78724 5.20674L8.77454 5.33372H8.74914V5.44801H8.72375L8.71105 5.5242L8.67295 5.60039L8.66025 5.67658H8.63486V5.72737H8.60946L8.59676 5.79086L8.57137 5.84166H8.54597V5.87975H8.52057V5.93054H8.49517L8.48248 5.98134L8.45708 6.01943H8.43168V6.04483H8.40629V6.08293H8.38089L8.36819 6.13372H8.34279V6.15912H8.3174V6.18451L8.2666 6.22261H8.24121V6.24801H8.20311V6.2734H8.17771V6.2988L8.12692 6.33689H8.08883V6.36229L7.97454 6.42578H7.94914V6.45118H7.88565V6.47658H7.82216V6.50197L7.72057 6.52737H7.65708L7.69517 6.50197H7.72057V6.47658H7.77137V6.45118L7.83486 6.41308H7.86025V6.38769L7.89835 6.36229H7.93644V6.33689H7.97454V6.2988L8.03803 6.2734V6.24801H8.06343V6.22261H8.08883V6.19721H8.11422V6.15912H8.13962V6.13372H8.16502L8.17771 6.08293H8.20311V6.04483H8.22851V6.01943H8.25391L8.2666 5.96864H8.292V5.93054H8.3174V5.87975H8.34279L8.36819 5.81626L8.40629 5.72737H8.43168L8.44438 5.65118L8.50787 5.4988L8.52057 5.42261H8.54597V5.33372L8.57137 5.24483L8.59676 5.13054L8.60946 5.01626L8.62216 4.99086L8.63486 4.47023H8.68565V4.44483H8.74914V4.41943Z" fill="#B80030"/>
<path d="M7.492 3.28955L7.5174 3.30225V3.32765H7.54279V3.35304H7.56819L7.59359 3.41653L7.60629 3.49273L7.61898 3.92447L7.63168 3.94987V4.41971H7.65708L7.66978 4.76257L7.68248 4.78796L7.69517 5.08003L7.72057 5.3086V5.47368H7.69517V5.49907L7.63168 5.51177L7.59359 5.49907V5.47368H7.56819L7.54279 5.334V4.97844H7.5174L7.5047 4.61019L7.492 4.58479L7.4539 4.10225V3.92447H7.42851V3.64511H7.40311V3.35304H7.42851L7.4539 3.30225L7.492 3.28955Z" fill="#B80030"/>
<path d="M9.26978 6.33691H9.43486V6.4131H9.40946V6.4512H9.38407L9.37137 6.51469L9.33327 6.61628L9.32057 6.73056H9.29518V6.88295H9.26978V6.93374H9.24438L9.21899 6.98453L9.20629 7.02263H9.18089L9.16819 7.08612L9.1301 7.16231L9.1174 7.2258H9.092V7.2893H9.0666V7.36549H9.04121L9.02851 7.45437L9.00311 7.54326H8.97772V7.65755H8.95232V7.68295H8.79994V7.70834H8.69835L8.72375 7.61945L8.74914 7.54326H8.77454L8.78724 7.45437L8.83803 7.31469H8.86343V7.2639H8.88883L8.90153 7.20041L8.95232 7.11152H8.97772V6.73056H9.00311V6.64168L9.0666 6.50199H9.092V6.4766H9.1174L9.1428 6.4258L9.18089 6.38771H9.20629V6.36231H9.26978V6.33691Z" fill="#748E9E"/>
<path d="M7.88565 4.10205H7.93645V4.12745H8.20311V4.15284H8.36819L8.45708 4.17824L8.59676 4.19094L8.60946 4.20364L8.72375 4.21634V4.24173H8.83803V4.26713L8.71105 4.33062H8.63486V4.35602H8.54597V4.38142L8.43168 4.40681L8.292 4.44491H8.17772V4.4703L8.02533 4.483L7.92375 4.5084V4.62269L7.93645 4.74967V4.86396L7.91105 4.90205H7.82216L7.79676 4.86396L7.77137 4.78777V4.44491H7.74597V4.12745H7.88565V4.10205Z" fill="#B80030"/>
<path d="M7.69518 1.71484L7.91105 1.72754L8.11422 1.75294V1.77834H8.22851V1.80373H8.3174V1.84183H8.34279V1.89262H8.3174V1.91802L8.20311 1.96881L8.12692 2.00691H8.08883V2.0323L7.93645 2.045L7.92375 2.0577L7.72057 2.0958L7.65708 2.12119H7.5174V2.14659L7.36502 2.15929L7.35232 2.17199L7.08565 2.18469V2.14659H7.11105L7.13645 2.0831L7.17454 2.0323H7.19994V2.00691H7.22533V1.98151L7.28883 1.94342H7.31422V1.91802H7.33962V1.89262H7.37771V1.86722L7.42851 1.85453V1.82913H7.45391V1.80373H7.5174V1.77834L7.63168 1.72754L7.69518 1.71484Z" fill="#080002"/>
<path d="M9.81581 6.13379H10.0444V6.15919L10.0952 6.17188V6.33696H10.0698V6.42585L10.0444 6.45125H9.98089V6.47665H9.9174V6.50204L9.84121 6.54014H9.81581V6.56554H9.77772V6.59093H9.75232V6.61633H9.72692V6.65442H9.70153V6.67982H9.67613L9.66343 6.73061H9.63803V6.76871H9.61264L9.59994 6.8322L9.57454 6.90839H9.54915V6.98458H9.52375V7.02268H9.48565V7.04807L9.43486 7.06077V7.08617L9.37137 7.11157V7.13696L9.32057 7.17506H9.29518V7.20046H9.26978V7.22585H9.23169L9.24438 7.16236L9.28248 7.09887L9.29518 7.04807H9.32057V6.99728H9.34597L9.35867 6.93379H9.38407V6.8449L9.39677 6.8195L9.40946 6.67982H9.43486V6.61633L9.48565 6.50204L9.49835 6.45125H9.52375V6.41315H9.54915V6.36236H9.57454L9.61264 6.28617H9.63803V6.24807H9.67613V6.22268L9.72692 6.18458H9.75232V6.15919H9.81581V6.13379Z" fill="#748E9E"/>
<path d="M6.60312 3.67041H6.7174V3.69581H6.7428V3.98787H6.7682V4.24184H6.79359L6.83169 4.77517L6.84439 5.05454L6.85709 5.07993V5.3847L6.83169 5.42279H6.7428L6.7047 5.3847L6.67931 5.27041L6.66661 5.04184L6.65391 5.01644V4.61009H6.62851L6.61582 4.31803L6.60312 4.29263L6.57772 3.97517L6.56502 3.93708V3.7212L6.57772 3.69581H6.60312V3.67041Z" fill="#B80030"/>
<path d="M8.97771 11.4927H9.04121L9.0666 11.5308V11.6197H9.04121V11.6451H9.01581V11.6705L8.97771 11.6578H9.00311V11.6324H9.02851L9.04121 11.5308H9.00311V11.5562H8.97771V11.5816H8.92692V11.607L8.86343 11.6197V11.6451H8.81264V11.6705H8.74914V11.6959H8.63486V11.7212L8.48248 11.7593H8.38089V11.7847H8.22851V11.8101L8.03803 11.8228L8.02533 11.8355L7.63168 11.8609L7.19994 11.8736L6.7174 11.8355L6.7047 11.8228L6.51422 11.8101V11.7847H6.42533L6.33644 11.7466V11.7339H6.90787L7.14914 11.7085L7.16184 11.6959H7.31422V11.6705H7.40311V11.6959L7.31422 11.7339H7.22533V11.7593H7.54279L7.94914 11.7339L7.97454 11.7212H8.20311V11.6959H8.38089V11.6705L8.49518 11.6578L8.66025 11.607H8.74914V11.5816H8.90152V11.5562H8.95232V11.5308H8.97771V11.4927Z" fill="#415C6F"/>
<path d="M7.492 9.98145H7.5174V10.0957H7.54279L7.55549 10.3243L7.58089 10.4132L7.59359 10.5529L7.60629 10.5783V10.718H7.63168V10.8449H7.65708L7.68248 10.9465L7.72057 11.0608V11.1243H7.74597V11.2386H7.77136V11.2894H7.79676V11.3275H7.82216V11.3529H7.86025V11.3783H7.88565V11.4037L7.92375 11.4164V11.4672H7.88565V11.4926H7.86025V11.518L7.80946 11.5307V11.556H7.77136V11.5814H7.72057V11.6068L7.63168 11.6195V11.6449L7.54279 11.6703H7.40311L7.42851 11.6449L7.54279 11.6068H7.60629V11.5814H7.68248V11.556L7.79676 11.518V11.4926H7.83486V11.4672H7.80946V11.4418L7.74597 11.4291V11.4037H7.72057V11.3783H7.69517V11.3529H7.65708V11.3021H7.63168V11.264H7.60629L7.56819 11.1751V11.1243H7.54279V11.01H7.5174L7.5047 10.883L7.492 10.8703L7.4793 10.6926L7.4539 10.5529L7.44121 10.3497L7.42851 10.3243V10.0068H7.492V9.98145Z" fill="#446072"/>
<path d="M6.85708 2.87061H6.94597V2.896H6.97137V2.9214H6.99677L7.00946 3.40394L7.02216 3.44203L7.03486 3.75949L7.06026 3.94997V4.12775H6.88248V3.87378H6.85708L6.84438 3.37854L6.83169 3.35315L6.81899 3.14997L6.80629 3.12457V2.9214L6.81899 2.896H6.85708V2.87061Z" fill="#F4F5F5"/>
<path d="M7.14914 3.01025H7.23803V3.03565H7.26343V3.06105H7.28882V3.35311H7.31422V3.83565H7.33962V4.12771H7.19993V4.10232H7.17454L7.16184 3.92454L7.13644 3.75946L7.12374 3.53089L7.11105 3.49279V3.03565H7.14914V3.01025Z" fill="#F8F9F9"/>
<path d="M8.74914 6.95947H8.88882L8.92692 6.99757V7.04836L8.88882 7.08646H8.86343V7.11185H8.83803V7.16265H8.81263L8.79994 7.22614H8.77454V7.26423H8.74914L8.73644 7.32773L8.67295 7.48011L8.66025 7.5436H8.63486V7.61979H8.60946V7.68328H8.58406L8.55867 7.77217L8.54597 7.82296L8.45708 7.86106L8.38089 7.88646V7.91185H8.34279L8.3174 7.79757L8.36819 7.72138L8.40629 7.65789H8.43168L8.45708 7.59439H8.48248V7.48011L8.49517 7.34043H8.52057V7.22614H8.54597V7.16265H8.57136L8.59676 7.09916L8.60946 7.07376H8.63486V7.04836H8.66025V7.02296H8.68565V6.99757H8.72375V6.97217L8.74914 6.95947Z" fill="#718B9B"/>
<path d="M9.09201 3.50537H9.1174L9.1555 3.55616V3.58156H9.1809V3.60696H9.20629L9.23169 3.69585H9.26978V3.74664H9.29518V3.81013H9.32058V3.92442H9.35867L9.38407 3.98791V4.38156L9.35867 4.47045H9.32058V4.55934H9.29518V4.64823H9.26978L9.24439 4.71172L9.20629 4.72442V4.26728H9.1809L9.1428 3.94982L9.1301 3.83553L9.1174 3.81013V3.64505H9.09201V3.50537Z" fill="#F6F6F7"/>
<path d="M7.19994 4.12744H7.33962L7.36502 4.24173L7.39041 4.60998L7.40311 4.68617V5.05443H7.42851V5.2195H7.40311L7.39041 5.2703H7.31422V5.2449H7.28882L7.26343 5.20681L7.23803 4.83855L7.22533 4.73697V4.4957H7.19994V4.12744Z" fill="#B80030"/>
<path d="M3.96184 11.4165H4.10152V11.4419H4.15232V11.4673H4.19041V11.4927H4.21581V11.5562H4.24121V11.7848H4.21581V11.8102H4.19041V11.8609L4.12692 11.8736V11.899H3.96184V11.8736L3.89835 11.8609L3.87295 11.8482V11.8102H3.84755V11.7594H3.82216L3.80946 11.6959V11.5816L3.84755 11.4927H3.87295V11.4673H3.89835V11.4419L3.96184 11.4165Z" fill="#B80030"/>
<path d="M9.18089 8.71191H9.20629V8.73731H9.18089V8.77541H9.1555V8.8008H9.1301L9.1174 8.8516H9.09201V8.88969H9.06661L9.04121 8.95318L9.02851 8.97858H9.00312V9.00398H8.97772V9.05477H8.95232V9.09287L8.88883 9.11826V9.16906H8.86343V9.20715H8.83804L8.81264 9.27064L8.77454 9.32144H8.74915V9.34683H8.72375L8.71105 9.39763L8.68566 9.43572H8.66026V9.46112H8.63486V9.52461H8.60947V9.55001H8.57137V9.57541H8.54597V9.6008H8.52058V9.6389H8.48248V9.6643H8.40629V9.68969H8.3174V9.71509L8.16502 9.74049L7.99994 9.77858H7.86026V9.80398H7.77137V9.77858L7.82216 9.74049L7.97454 9.71509V9.68969H8.02534V9.6643L8.13962 9.6262L8.15232 9.6008H8.27931V9.57541H8.3301V9.55001H8.40629V9.52461H8.43169V9.48652H8.46978V9.46112H8.52058V9.43572H8.54597V9.39763H8.58407L8.60947 9.32144H8.63486V9.28334H8.66026V9.25795H8.68566V9.23255H8.72375V9.20715H8.74915V9.16906H8.77454V9.14366H8.79994L8.81264 9.09287H8.83804V9.05477H8.86343V9.02937H8.88883V9.00398H8.91423L8.93962 8.95318L8.97772 8.94049V8.91509H9.00312V8.88969H9.02851L9.04121 8.8389L9.09201 8.8262V8.8008H9.1174L9.1301 8.75001L9.18089 8.71191Z" fill="#DEE2E5"/>
<path d="M7.492 3.28955L7.5174 3.30225V3.32765H7.54279V3.35304H7.56819L7.59359 3.41653L7.60629 3.49273L7.61898 3.92447L7.63168 3.94987V4.12765H7.4666L7.4539 4.10225V3.92447H7.42851V3.64511H7.40311V3.35304H7.42851L7.4539 3.30225L7.492 3.28955Z" fill="#F1F2F3"/>
<path d="M7.28883 10.0576L7.33962 10.0703V10.8703H7.31423V11.01H7.28883V11.0735L7.25073 11.1243H7.22534V11.1751H7.19994V11.2386H7.17454V11.264L7.11105 11.3275H7.08565V11.3529H7.06026V11.3783H7.02216L7.00946 11.4163H6.97137V11.4417H6.93327L6.94597 11.4036H6.97137V11.3783H6.99677V11.3529H7.02216L7.04756 11.2894L7.06026 11.264H7.08565V11.2132H7.11105L7.12375 11.1497L7.17454 11.01H7.19994V10.8957H7.22534V10.0957L7.28883 10.0576Z" fill="#E4E7E8"/>
<path d="M11.3015 5.61328H11.4031L11.4793 5.67677V5.70217H11.5047V5.76566H11.5301V5.84185H11.5047V5.90534H11.4793L11.4539 5.95614L11.4031 5.99423H11.3015V5.96884H11.2761V5.93074H11.238V5.90534H11.2126V5.86725H11.1872V5.72757H11.2126V5.70217H11.238V5.65138L11.3015 5.61328Z" fill="#F4F5F6"/>
<path d="M10.9968 1.86719H11.0984L11.1619 1.89258V1.94338H11.1872V1.98147H11.2126V2.12116H11.1872V2.17195L11.1492 2.21004H11.0984V2.23544H11.0095L10.9587 2.19735V2.17195H10.9333V2.14655H10.8952V1.95608H10.9206V1.91798H10.9587V1.89258L10.9968 1.86719Z" fill="#EDEFF1"/>
<path d="M6.80629 6.85791H6.90788L7.06026 6.88331V6.9087H7.08565V6.9595H7.11105L7.17454 7.08648V7.13728H7.19994V7.22616H7.22534L7.25073 7.34045L7.26343 7.45474H7.17454L7.14915 7.39124V7.34045H7.12375L7.11105 7.27696H7.08565V7.21347H7.06026V7.16267H7.03486L6.99677 7.09918V7.07378H6.97137V7.02299H6.94597V6.99759L6.90788 6.98489V6.9595H6.88248V6.9341H6.85708V6.9087H6.83169V6.88331H6.80629V6.85791Z" fill="#B80030"/>
<path d="M3.32693 9.39746H3.35232L3.41582 9.54984V9.60064H3.44121L3.47931 9.68952V9.74032H3.5047V9.80381H3.5301V9.8546H3.5555V9.95619L3.60629 9.98159L3.61899 10.0578L3.64439 10.0705V10.1213H3.59359L3.5301 10.0578V10.0324H3.5047L3.49201 9.98159H3.46661V9.94349H3.44121V9.8927H3.41582L3.33963 9.74032L3.32693 9.68952H3.30153L3.27613 9.61333L3.26343 9.52445L3.25074 9.49905H3.27613V9.43556H3.30153V9.41016L3.32693 9.39746Z" fill="#B0B8BC"/>
<path d="M4.19042 11.4927H4.21581V11.5562H4.24121V11.7847H4.21581V11.8101H4.19042V11.8609L4.12693 11.8736V11.899H3.96185V11.8736L3.89835 11.8609L3.87296 11.8482V11.8101H3.84756V11.7593L3.96185 11.7466V11.7212H4.01264V11.6959H4.05074V11.6705H4.07613V11.6451H4.10153V11.607H4.12693V11.5816H4.15232L4.16502 11.5181L4.19042 11.4927Z" fill="#F7F7F8"/>
<path d="M6.60312 3.67041H6.7174V3.69581H6.7428V3.98787H6.7682V4.12755H6.59042L6.57772 3.97517L6.56502 3.93708V3.7212L6.57772 3.69581H6.60312V3.67041Z" fill="#F7F8F8"/>
<path d="M11.5301 3.72119H11.619V3.74659L11.6698 3.75929L11.6825 3.81008H11.7079V3.94976L11.6698 3.98786H11.6444V4.01325H11.4793L11.4412 3.94976V3.81008H11.4666V3.78468H11.5047V3.74659H11.5301V3.72119Z" fill="#E9ECEE"/>
<path d="M5.59994 2.73096L5.62534 2.74366V2.81985L5.61264 2.83254L5.56184 3.09921H5.53645V3.23889H5.51105V3.41667H5.48565V3.58175L5.47295 3.61985L5.46026 3.75953L5.44756 3.78493H5.42216V3.49286H5.44756V3.2135L5.48565 3.09921L5.51105 2.99762H5.53645V2.89604H5.56184V2.80715H5.58724L5.59994 2.73096Z" fill="#B9C4CA"/>
<path d="M11.4412 3.01025H11.5301V3.03565H11.5682V3.06105H11.5936V3.09914H11.619V3.18803L11.5809 3.23883H11.5555V3.26422H11.4158V3.23883H11.3777V3.21343H11.3523V3.09914L11.3777 3.06105H11.4158V3.03565H11.4412V3.01025Z" fill="#E7EAEC"/>
<path d="M7.31422 11.6704H7.40311V11.6958L7.31422 11.7339H7.22533V11.7593H7.54279L7.94914 11.7339L7.97454 11.7212H8.20311V11.6958H8.36819L8.34279 11.7212L8.292 11.7339L8.11422 11.7466L8.08882 11.7593H7.88565V11.7847L7.4793 11.7974L7.4666 11.8101H7.40311L7.39041 11.7974L6.89517 11.7847L6.88247 11.7593L7.13644 11.7212L7.16184 11.6958H7.31422V11.6704Z" fill="#A7B2B9"/>
<path d="M9.0666 4.90234H9.092V5.13092H9.0666V5.2452L9.05391 5.2706L9.02851 5.42298L9.00311 5.51187H8.97772V5.58806H8.95232L8.93962 5.67695L8.90153 5.74044H8.88883V5.67695H8.91422L8.92692 5.57536L8.88883 5.65155H8.86343V5.61345H8.88883V5.53726L8.93962 5.42298L8.95232 5.35949H8.97772V5.2706H9.00311V5.15631H9.02851V5.06742L9.05391 5.01663L9.0666 4.90234Z" fill="#BDC6CB"/>
<path d="M5.73962 2.14648H5.85391V2.17188H6.01899L6.05708 2.18458L6.50153 2.19728H6.692L7.17454 2.18458L7.35232 2.15918L7.36502 2.14648H7.45391L7.42851 2.15918V2.18458L7.26343 2.19728L7.25073 2.20998L6.94597 2.22267L6.93327 2.23537H6.17137V2.20998H5.9301L5.73962 2.15918V2.14648Z" fill="#9AA9B3"/>
<path d="M6.97137 1.68945H7.79677V1.71485L7.08565 1.72755L6.7428 1.75295H6.53962V1.77834H6.36185V1.80374H6.26026V1.77834L6.45073 1.74025L6.61581 1.72755L6.62851 1.71485H6.97137V1.68945Z" fill="#C0C3C4"/>
<path d="M7.88566 4.10205H7.93645V4.12745H8.11423V4.15284H8.08883V4.17824H8.06343L8.05074 4.26713L8.06343 4.31792L8.05074 4.33062H7.97455V4.35602H7.91105L7.88566 4.31792V4.10205Z" fill="#090305"/>
<path d="M11.5301 4.49561H11.6444V4.5337H11.6698V4.69878H11.6444V4.72418H11.5047V4.69878H11.4793V4.5591H11.5047V4.521H11.5301V4.49561Z" fill="#F1F2F3"/>
<path d="M7.99994 3.01025H8.08883V3.03565H8.11422V3.07375H8.13962L8.15232 3.09914V3.18803L8.13962 3.21343H8.08883V3.23883H7.99994V3.21343H7.97454V3.18803H7.94914V3.06105H7.97454V3.03565H7.99994V3.01025Z" fill="#E5E8EA"/>
<path d="M11.4412 5.04199H11.5682V5.06739H11.5936L11.619 5.10548V5.20707L11.5809 5.21977V5.24517H11.4412V5.21977H11.4158V5.06739H11.4412V5.04199Z" fill="#F8F8F8"/>
<path d="M11.2761 2.48926H11.4158V2.54005H11.4412V2.64164H11.4158V2.66704H11.3904V2.69243H11.2761V2.66704H11.238V2.52735L11.2761 2.51465V2.48926Z" fill="#ECEFF0"/>
<path d="M6.28565 2.97217H6.36184L6.42533 3.01026V3.04836L6.38724 3.03566V3.01026H6.33644V2.98487H6.31105V3.01026H6.26025V3.03566H6.23486L6.24756 3.37852L6.26025 3.46741V3.83566H6.28565V3.97534L6.26025 3.98804H6.10787V4.01344H5.99359L6.01898 3.98804L6.05708 3.97534L6.19676 3.96264L6.24756 3.94995L6.23486 3.67058L6.22216 3.65788V3.14995H6.19676V3.07376H6.22216V3.01026L6.28565 2.97217Z" fill="#94A6B0"/>
<path d="M7.28882 10.0576L7.33962 10.0703V10.2989H7.31422V10.083L7.26343 10.0957V10.7814L7.25073 10.8068L7.23803 10.9211L7.22533 10.9465H7.19994V10.8957H7.22533V10.0957L7.28882 10.0576Z" fill="#688090"/>
<path d="M6.59042 11.9243H6.81899L6.83169 11.937H7.59359L7.65708 11.9243H8.03804L7.99994 11.9497L7.88566 11.9624L7.17454 11.9751L6.7428 11.9624L6.59042 11.937V11.9243Z" fill="#91A1AB"/>
<path d="M4.91422 11.1245H4.96502V11.1499H5.01581L5.04121 11.2134L5.02851 11.2896L5.00311 11.3277H4.87613V11.3023H4.85073V11.188H4.87613V11.1499H4.91422V11.1245Z" fill="#B80030"/>
<path d="M7.56819 3.39111L7.59359 3.41651L7.60629 3.4927L7.61898 3.92445L7.63168 3.94984V4.12762H7.4666L7.45391 4.10222V3.92445H7.42851V3.77207L7.4666 3.82286V4.08953H7.59359L7.58089 3.72127L7.56819 3.67048V3.39111Z" fill="#BDC1C2"/>
<path d="M7.86026 8.43213H7.94915V8.45753H7.97454V8.48292H8.01264V8.50832H8.03803L8.06343 8.57181H8.08883V8.60991H8.11422L8.17772 8.76229L8.15232 8.77499V8.74959L8.11422 8.73689V8.6861H8.08883V8.6607L8.03803 8.648L7.99994 8.60991V8.57181H7.97454V8.54641L7.91105 8.53372L7.88565 8.52102V8.48292H7.86026V8.43213Z" fill="#D6DADD"/>
<path d="M5.46026 4.78809H5.47296L5.49836 4.87697L5.51105 4.90237V5.01666H5.53645V5.13094H5.56185L5.59994 5.24523L5.62534 5.29602V5.35951H5.65074V5.42301H5.67613V5.4992H5.65074V5.4484H5.62534L5.58724 5.35951L5.56185 5.32142V5.27063H5.53645V5.18174H5.51105L5.46026 4.92777V4.78809Z" fill="#B80030"/>
<path d="M6.04438 5.42285H6.13327V5.44825H6.15867L6.17137 5.47365V5.56253L6.15867 5.58793H6.13327V5.61333H6.04438V5.58793H6.01898V5.56253H5.99359V5.47365H6.01898V5.44825H6.04438V5.42285Z" fill="#B80030"/>
<path d="M6.42533 3.07373H6.45073L6.47613 3.69595L6.48883 3.86103V4.1531H6.33644V4.1277H6.47613L6.46343 4.01341L6.45073 3.98802V3.41659H6.42533V3.07373Z" fill="#849AA7"/>
<path d="M7.72057 6.68018H7.78407V6.70557L7.68248 6.74367H7.60629V6.76906H7.4793V6.79446H7.03486V6.76906H6.90787V6.74367H6.81899L6.76819 6.70557H6.85708L7.06026 6.75637H7.45391L7.55549 6.73097H7.63168V6.70557H7.72057V6.68018Z" fill="#8CA0AC"/>
<path d="M7.5174 7.68311H7.5682V7.7085H7.5428V7.93707H7.5682V8.00057H7.59359L7.63169 8.06406V8.08945L7.5428 8.07676V8.05136H7.5174V8.00057H7.492L7.46661 7.88628V7.79739H7.492V7.7339H7.5174V7.68311Z" fill="#456174"/>
<path d="M5.48565 3.1626L5.51105 3.1753V3.41657H5.48565V3.58165L5.47295 3.61974L5.46026 3.75942L5.44756 3.78482H5.42216V3.49276H5.44756V3.37847L5.47295 3.27688L5.48565 3.1626Z" fill="#CED5DA"/>
<path d="M6.7428 3.74658H6.76819V3.94976H6.88248V4.10214H6.85708V4.12753H6.76819V3.98785H6.7428V3.74658Z" fill="#A82149"/>
<path d="M8.17772 11.2388H8.26661V11.2642H8.49518L8.52057 11.2769L8.69835 11.2896L8.79994 11.315V11.3277H8.68565L8.66026 11.315L8.38089 11.3023L8.26661 11.2896L8.292 11.315L8.3428 11.3277V11.3531H8.38089V11.3785H8.3174V11.3531H8.22851V11.3277H8.20311V11.3023L8.13962 11.2896L8.11423 11.2642L8.17772 11.2769V11.2388Z" fill="#7F929F"/>
<path d="M6.10788 4.47021H6.24756L6.26026 4.48291L6.37454 4.49561L6.39994 4.52101L6.28565 4.54641L6.27295 4.5591H6.17137L6.08248 4.54641L5.76502 4.53371L5.62534 4.50831V4.49561H5.8793L5.9301 4.50831H6.17137L6.10788 4.48291V4.47021Z" fill="#C0C3C4"/>
<path d="M6.74279 11.3276H6.83168V11.353H6.78089V11.3784L6.6793 11.4038L6.53962 11.4419H6.42533V11.4673H6.38724V11.4419H6.31105L6.33645 11.4165L6.46343 11.3911L6.47613 11.3784H6.60311V11.353H6.74279V11.3276Z" fill="#768B9A"/>
<path d="M9.06661 4.90234H9.09201V5.13092H9.06661V5.2452L9.05391 5.2706L9.02851 5.42298L9.00312 5.44838V5.38488L9.01582 5.37219V5.30869L9.00312 5.33409H8.97772V5.2706H9.00312V5.15631H9.02851V5.06742L9.05391 5.01663L9.06661 4.90234Z" fill="#92A1AA"/>
<path d="M6.7428 6.81982H6.83168L6.85708 6.83252L7.45391 6.84522V6.85792L7.33962 6.87062L6.94597 6.88332L6.80629 6.85792V6.88332H6.83168V6.90871H6.79359V6.88332H6.76819V6.85792H6.7428V6.81982Z" fill="#A9B4BA"/>
<path d="M8.20311 11.6958H8.36819L8.34279 11.7212L8.292 11.7339L8.11422 11.7466L8.08883 11.7593H7.88565V11.7847H7.65708V11.7593L7.70787 11.7466L7.94914 11.7339L7.97454 11.7212H8.20311V11.6958Z" fill="#91A4AF"/>
<path d="M8.05073 3.40381H8.13962L8.15232 3.4419H8.17772V3.51809L8.15232 3.55619H8.05073L8.02534 3.53079V3.42921L8.05073 3.40381Z" fill="#FDFDFD"/>
<path d="M7.36502 2.14648H7.45391L7.42851 2.15918V2.18458L7.26343 2.19728L7.25073 2.20998L6.94597 2.22267L6.93327 2.23537H6.65391L6.692 2.19728L7.17454 2.18458L7.35232 2.15918L7.36502 2.14648Z" fill="#97A7B1"/>
<path d="M6.62851 1.71484H7.08565V1.72754L6.7428 1.75294H6.53962V1.77834H6.36185V1.80373H6.26026V1.77834L6.45073 1.74024L6.61581 1.72754L6.62851 1.71484Z" fill="#8B9FAC"/>
<path d="M5.58724 2.23535H5.65073V2.26075H5.73962V2.28615H5.85391L6.01898 2.31154L6.19676 2.32424V2.34964H5.99359V2.32424H5.79041L5.65073 2.28615L5.59994 2.26075L5.57454 2.37503H5.56184V2.26075H5.58724V2.23535Z" fill="#9BAAB3"/>
<path d="M7.06026 3.94971H7.17454V4.10209H7.08565V4.12748H7.06026V3.94971Z" fill="#B80030"/>
<path d="M7.79676 11.4927H7.86025V11.5181L7.80946 11.5308V11.5562H7.77136V11.5816H7.72057V11.607L7.63168 11.6197V11.6451L7.54279 11.6705H7.40311L7.42851 11.6451L7.54279 11.607H7.60629V11.5816H7.68248V11.5562L7.79676 11.5181V11.4927Z" fill="#6B818F"/>
<path d="M7.11105 3.03564H7.13644V3.31501L7.14914 3.3531L7.16184 3.74676L7.17454 3.75945V3.92453H7.16184L7.13644 3.75945L7.12374 3.53088L7.11105 3.49279V3.03564Z" fill="#577284"/>
<path d="M8.08883 3.6958H8.15232V3.7212H8.17772V3.74659H8.20311V3.81009H8.17772V3.83548L8.13962 3.86088H8.08883V3.83548H8.06343V3.7212H8.08883V3.6958Z" fill="#EDEDEE"/>
<path d="M8.52057 3.92432H8.54597V4.0767H8.35549L8.12692 4.0513L7.94914 4.0386V4.01321H8.13962V4.0386H8.45708L8.52057 4.064V3.92432Z" fill="#9DA9B1"/>
<path d="M7.79676 12.0386H8.06343V12.0513L7.86025 12.0767L7.11105 12.0894L7.08565 12.064L7.72057 12.0513L7.79676 12.0386Z" fill="#7E92A0"/>
<path d="M9.09201 3.50537H9.1174L9.1555 3.55616V3.58156H9.1809V3.60696H9.20629V3.63236L9.1428 3.60696V3.58156H9.1174L9.1555 3.74664L9.1682 3.92442L9.1809 3.93712V4.12759H9.1682L9.1301 3.83553L9.1174 3.81013V3.64505H9.09201V3.50537Z" fill="#8A9BA6"/>
<path d="M6.48883 3.9624H6.57772L6.59041 3.9751V4.12748H6.48883V3.9624Z" fill="#B80030"/>
<path d="M8.88883 3.01025L8.91423 3.03565L8.93962 3.17533L8.95232 3.18803V3.35311H8.97772V3.4674H8.95232L8.91423 3.37851V3.30232H8.88883V3.18803H8.90153V3.08644L8.88883 3.07375V3.01025Z" fill="#778C99"/>
<path d="M7.42851 3.94971H7.45391V4.10209H7.33962V3.96241L7.42851 3.94971Z" fill="#B80030"/>
<path d="M6.84438 1.5752H7.08565V1.60059L6.60311 1.62599L6.53962 1.63869H6.39994V1.66408H6.28565L6.33645 1.63869L6.50153 1.61329L6.51422 1.60059H6.84438V1.5752Z" fill="#B1B9BD"/>
<path d="M6.05708 5.10547H6.08248V5.13087H6.13327V5.21975L6.12057 5.24515H6.08248V5.27055H6.05708V5.24515H6.01898V5.21975H5.99359V5.15626H6.01898V5.13087H6.05708V5.10547Z" fill="#B80030"/>
<path d="M7.25073 3.03564L7.26343 3.06104H7.28883V3.3531H7.31423V3.63247H7.28883L7.26343 3.21342L7.25073 3.03564Z" fill="#91A0A9"/>
<path d="M5.38407 3.09912H5.39676V3.2388L5.38407 3.2642L5.37137 3.40388L5.34597 3.53087L5.33327 3.69595H5.30787V3.51817H5.33327V3.32769H5.35867V3.18801L5.38407 3.09912Z" fill="#8FA2AE"/>
<path d="M7.54279 10.3242L7.56819 10.3496L7.59359 10.5528L7.60629 10.5782V10.7179H7.63168V10.8195L7.59359 10.7814L7.56819 10.6671V10.4893H7.54279V10.3242Z" fill="#90A3AE"/>
<path d="M9.892 3.86084L9.9047 3.89894H9.9301L9.9428 4.11481L9.9555 4.1783L9.9428 4.2164L9.9301 4.47036L9.9047 4.58465H9.892V4.47036L9.9047 4.44497V3.98782L9.892 3.96243V3.86084Z" fill="#6E8595"/>
<path d="M9.54915 3.78467L9.58724 3.83546L9.59994 3.97514L9.61264 3.98784V4.47038L9.58724 4.53387H9.57454V4.40689L9.58724 4.38149V4.01324L9.57454 4.00054V3.87356H9.54915V3.78467Z" fill="#738896"/>
<path d="M6.79359 2.92139H6.80629L6.81899 3.12456L6.83169 3.14996L6.84439 3.35313L6.85708 3.37853V3.6198L6.83169 3.5817L6.80629 3.23885L6.79359 3.14996V2.92139Z" fill="#637B8C"/>
<path d="M8.11423 9.71484H8.20312L8.16502 9.74024L7.99994 9.77834H7.86026V9.80373H7.77137V9.77834L7.82216 9.74024L7.91105 9.72754L7.93645 9.74024L8.08883 9.72754L8.11423 9.71484Z" fill="#8194A0"/>
<path d="M5.28248 3.86084H5.30788V4.1783H5.28248V4.2037L5.33328 4.1783H5.37137V4.1529H5.44756L5.39677 4.191L5.34597 4.2164H5.30788V4.24179H5.28248L5.26978 4.1529L5.28248 3.86084Z" fill="#8FA2AE"/>
<path d="M8.11423 7.61963L8.15232 7.65772L8.17772 7.70852V7.77201H8.20311V7.91169H8.17772L8.16502 7.96249H8.13962L8.12692 7.98788V7.8355L8.11423 7.77201L8.15232 7.8228H8.16502L8.15232 7.73391L8.11423 7.65772V7.61963Z" fill="#8598A3"/>
<path d="M3.55549 9.89258L3.56819 9.91797H3.59359L3.61899 9.96877V10.0069H3.64438V10.0577H3.66978L3.69518 10.1465V10.1719L3.58089 10.1465V10.1211H3.55549V10.0831H3.5301V10.0577L3.58089 10.0831L3.59359 10.1211H3.64438V10.0704L3.60629 10.0577L3.58089 9.96877L3.55549 9.95607V9.89258Z" fill="#7A93A3"/>
<path d="M6.28565 2.97217H6.36184L6.42533 3.01026V3.04836L6.38724 3.03566V3.01026H6.33644V2.98487H6.31105V3.01026H6.26025V3.03566H6.23486V3.37852H6.22216V3.14995H6.19676V3.07376H6.22216V3.01026L6.28565 2.97217Z" fill="#ABB5BA"/>
<path d="M9.0666 7.77197H9.092V7.86086H8.74914V7.84816L8.83803 7.82277H9.0666V7.77197Z" fill="#7C8F9B"/>
<path d="M8.06343 9.60059H8.08883V9.62598L8.13962 9.63868L8.02534 9.66408V9.68947H7.97454V9.71487L7.86026 9.74027V9.68947H7.93645V9.66408H7.97454V9.62598H8.06343V9.60059Z" fill="#333F4A"/>
<path d="M6.57772 3.6958H6.60312V4.12755H6.59042L6.57772 3.97517L6.56502 3.93707V3.7212L6.57772 3.6958Z" fill="#8F9EA7"/>
<path d="M5.65073 10.2354H5.73962V10.2607L5.67613 10.2988H5.62534V10.3242L5.58724 10.3115L5.56184 10.2988L5.47296 10.3242H5.39676L5.44756 10.2861H5.53645V10.2607H5.65073V10.2354Z" fill="#405C6F"/>
<path d="M5.73962 4.7627H5.80311V4.78809H5.82851V4.86428L5.76502 4.88968L5.73962 4.87698V4.85158H5.71423V4.78809H5.73962V4.7627Z" fill="#B80030"/>
<path d="M5.18089 3.08643H5.19359V3.23881H5.16819V3.3277L5.15549 3.35309L5.14279 3.55627H5.1174L5.1047 3.58166V3.46738H5.1301V3.3277L5.15549 3.21341L5.16819 3.09912L5.18089 3.08643Z" fill="#728896"/>
<path d="M5.77772 5.0166H5.82851V5.042H5.85391V5.13089H5.81581V5.15628H5.77772L5.76502 5.10549H5.73962V5.08009H5.76502L5.77772 5.0166Z" fill="#B80030"/>
<path d="M5.28248 4.38135H5.33328V4.40674L5.42216 4.41944L5.44756 4.44484H5.35867V4.41944L5.28248 4.40674V4.55913H5.30788V4.69881H5.28248L5.26978 4.62262V4.39405L5.28248 4.38135Z" fill="#A0ABB1"/>
<path d="M8.43169 3.46729H8.45708L8.49518 3.60697V3.74665H8.52058V3.87363L8.49518 3.86094L8.46978 3.69586L8.45708 3.67046L8.44438 3.55617L8.43169 3.54348V3.46729Z" fill="#687F8E"/>
<path d="M8.66026 3.58154H8.68566L8.72375 3.69583L8.73645 3.81011L8.74915 3.83551V3.9498L8.71105 3.899L8.69835 3.78472L8.68566 3.75932V3.64504H8.66026V3.58154Z" fill="#7C909D"/>
<path d="M7.93644 2.03223H8.03803L8.01264 2.05762L7.88565 2.09572H7.77137V2.12112H7.65708L7.68248 2.09572L7.82216 2.05762L7.92375 2.04492L7.93644 2.03223Z" fill="#738795"/>
<path d="M11.1745 4.7627H11.1872V4.86428L11.1745 4.87698L11.1618 5.01666L11.1238 5.15635L11.0984 5.16904V5.08016L11.1111 5.06746L11.1238 4.95317L11.1364 4.92777L11.1491 4.81349H11.1745V4.7627Z" fill="#6B8291"/>
<path d="M6.01898 4.86426L6.08248 4.87696V4.97854L5.99359 4.99124V4.87696L6.01898 4.86426Z" fill="#B80030"/>
<path d="M5.39676 3.60693H5.42216V3.78471H5.44756V3.8736H5.42216V3.92439H5.39676V3.60693Z" fill="#7D96A6"/>
<path d="M7.63168 3.98779H7.72057V4.10208H7.63168V3.98779Z" fill="#B80030"/>
<path d="M7.79677 1.71484H7.99994L8.01264 1.72754L8.17772 1.74024L8.26661 1.77834V1.80373H8.22851V1.77834H8.11423V1.75294H7.97454L7.79677 1.72754V1.71484Z" fill="#8295A1"/>
<path d="M5.51105 4.35596H5.57454V4.38135H5.68883L5.71422 4.39405L5.8793 4.41945L5.9428 4.43215V4.44485H5.79041L5.76502 4.43215L5.65073 4.41945L5.51105 4.38135V4.35596Z" fill="#C0C3C4"/>
<path d="M5.85391 4.15283H5.9682L5.9428 4.17823L5.80312 4.20363L5.79042 4.21632H5.67613V4.24172H5.58724V4.21632L5.73962 4.17823H5.85391V4.15283Z" fill="#C0C3C4"/>
<path d="M9.34597 3.92432L9.37137 3.96241L9.38407 3.98781V4.38146L9.35867 4.47035H9.34597V4.38146L9.35867 4.33067V4.064L9.34597 4.0386V3.92432Z" fill="#8C9DA7"/>
<path d="M6.88247 3.94971H6.89517L6.92057 4.08939H7.03486L7.04755 3.94971H7.06025V4.12748H6.88247V3.94971Z" fill="#C0C3C4"/>
<path d="M10.7555 3.35303H10.7809L10.819 3.49271L10.8317 3.63239L10.8444 3.64509V3.78477H10.8317L10.8063 3.67049L10.7936 3.5562L10.7809 3.53081V3.42922H10.7555V3.35303Z" fill="#5A7486"/>
<path d="M6.22216 3.37842H6.24756L6.26025 3.46731V3.67048L6.22216 3.65778V3.37842Z" fill="#96A6B1"/>
<path d="M5.59994 2.73096L5.62533 2.74366V2.81985L5.61264 2.83254L5.57454 3.01032H5.56184V2.93413H5.53645V2.89604H5.56184V2.80715H5.58724L5.59994 2.73096Z" fill="#7E96A6"/>
<path d="M8.74914 11.5815H8.83803L8.81263 11.6196L8.72375 11.6323L8.71105 11.645H8.60946V11.6704H8.49517L8.52057 11.645L8.66025 11.6069H8.74914V11.5815Z" fill="#859CAA"/>
<path d="M7.17454 3.93701H7.19994V4.08939H7.33962V4.12749H7.19994V4.10209H7.17454V3.93701Z" fill="#C0C3C4"/>
<path d="M6.45073 3.86084L6.47613 3.87354L6.48883 3.94973V4.1529H6.33644V4.12751H6.47613L6.46343 4.01322L6.45073 3.98782V3.86084Z" fill="#C0C3C4"/>
<path d="M7.06026 11.2642H7.08565V11.3023H7.11105V11.3277H7.08565V11.353H7.06026V11.3784H7.02216L7.00946 11.4165H6.97137V11.4419H6.93327L6.94597 11.4038H6.97137V11.3784H6.99677V11.353H7.02216L7.04756 11.2896L7.06026 11.2642Z" fill="#99A7AF"/>
<path d="M10.0444 6.24805L10.0698 6.26075L10.0571 6.41313L9.98089 6.43852V6.36233H10.0063V6.31154H10.0317L10.0444 6.24805Z" fill="#FAFBFB"/>
<path d="M8.05073 3.40381H8.13962L8.15232 3.4419H8.17772V3.51809L8.15232 3.55619H8.05073L8.02534 3.53079V3.42921L8.05073 3.40381ZM8.06343 3.41651V3.4419H8.03803V3.51809L8.11422 3.54349L8.15232 3.4927L8.12692 3.41651H8.06343Z" fill="#8598A4"/>
<path d="M6.59042 11.9243H6.81899L6.83169 11.937L7.00947 11.9497V11.9624H6.7428L6.59042 11.937V11.9243Z" fill="#AAB4BA"/>
<path d="M10.1206 6.50195H10.3238V6.52735L10.3618 6.54005V6.56545H10.3238V6.54005L10.1841 6.52735L10.1587 6.54005H10.0698V6.56545H10.0317L10.0444 6.52735L10.1206 6.50195Z" fill="#8497A2"/>
<path d="M8.3682 4.15283H8.52058L8.54598 4.16553L8.66026 4.17823L8.72375 4.20363V4.21632H8.60947L8.59677 4.20363L8.40629 4.17823L8.3682 4.15283Z" fill="#C0C3C4"/>
<path d="M7.68248 7.47998H7.94915V7.50538L8.01264 7.51808L7.97454 7.53077L7.68248 7.50538V7.47998Z" fill="#8899A4"/>
<path d="M7.72058 6.68018H7.78407V6.70557L7.68248 6.74367H7.60629V6.76906H7.45391V6.75637L7.5555 6.73097H7.63169V6.70557H7.72058V6.68018Z" fill="#748896"/>
<path d="M7.11105 3.03564H7.13644V3.31501L7.14914 3.3531V3.49279L7.12374 3.44199L7.11105 3.4039V3.03564Z" fill="#A5B0B7"/>
<path d="M11.4412 5.04199H11.5682V5.06739H11.5936L11.619 5.10548V5.20707L11.5809 5.21977V5.08009L11.4793 5.06739L11.4412 5.08009V5.10548H11.4158V5.06739H11.4412V5.04199Z" fill="#8295A1"/>
<path d="M10.8317 4.67383H10.8444V4.78811L10.8317 4.81351L10.819 4.96589L10.7809 5.08018H10.7555V5.01669H10.7809L10.7936 4.9278L10.819 4.72462L10.8317 4.67383Z" fill="#7A8F9D"/>
<path d="M10.5142 4.521H10.5269V4.69877H10.5015V4.81306H10.4761L10.4634 4.85115V4.76227L10.4761 4.74957L10.5015 4.55909L10.5142 4.521Z" fill="#91A0AA"/>
<path d="M6.14597 1.80371H6.22216V1.82911L6.17136 1.84181H6.08248V1.8672H5.96819V1.8926H5.8793L5.9047 1.8672L6.01898 1.84181L6.03168 1.82911L6.13327 1.81641L6.14597 1.80371Z" fill="#99A9B2"/>
<path d="M8.88883 3.01025L8.91423 3.03565L8.93962 3.17533L8.95232 3.18803L8.93962 3.32771L8.91423 3.27692L8.88883 3.26422V3.18803H8.90153V3.08644L8.88883 3.07375V3.01025Z" fill="#8E9DA7"/>
<path d="M6.56502 12.0386H6.7428L6.7682 12.0513L6.93328 12.064V12.0767H6.65391L6.56502 12.0513V12.0386Z" fill="#8E9EA8"/>
<path d="M9.71423 7.93701H9.75232V7.96241H9.72693V8.0005H9.70153L9.68883 8.0513L9.66344 8.11479H9.63804V8.15288H9.61264V8.20368H9.57455V8.16558H9.59994L9.62534 8.10209L9.63804 8.064H9.66344V8.0259H9.68883L9.70153 7.96241L9.71423 7.93701Z" fill="#7A8E9B"/>
<path d="M10.3745 6.56543L10.3872 6.59083H10.4126V6.74321H10.3872V6.8194H10.3618L10.3491 6.85749L10.3618 6.7686L10.3745 6.62892L10.3618 6.59083L10.3745 6.56543Z" fill="#8397A3"/>
<path d="M7.86026 4.08936L8.06343 4.10205V4.12745H7.93645V4.10205H7.88565V4.12745H7.74597V4.10205L7.86026 4.08936Z" fill="#C0C3C4"/>
<path d="M6.45073 1.74023H6.53962V1.77833H6.36185V1.80373H6.26026V1.77833L6.45073 1.74023Z" fill="#A0ADB5"/>
<path d="M5.96819 11.9243H6.05708V11.9497H6.13327L6.14597 11.9624L6.24756 11.9751V12.0005L6.27295 12.0132H6.19676V11.9878H6.08248V11.9624L5.99359 11.9497L5.96819 11.9243Z" fill="#8496A2"/>
<path d="M6.19677 9.14355H6.22216V9.16895H6.28566V9.14355H6.33645V9.16895L6.24756 9.20705H6.19677V9.23244H6.13327L6.14597 9.19435H6.17137V9.16895H6.19677V9.14355Z" fill="#3D586A"/>
<path d="M7.31423 11.6704H7.40312V11.6958L7.35232 11.7212H7.14915L7.16185 11.6958H7.31423V11.6704Z" fill="#5D7585"/>
<path d="M5.24438 2.75635H5.25708V2.89603L5.21899 3.06111H5.19359V2.95952H5.21899V2.84524L5.24438 2.75635Z" fill="#8D9DA7"/>
<path d="M8.20311 11.2896H8.2666L8.292 11.3149L8.34279 11.3276V11.353H8.38089V11.3784H8.3174V11.353H8.22851V11.3276H8.20311V11.2896Z" fill="#96A4AD"/>
<path d="M5.96819 6.15918H5.99359L6.05708 6.22267V6.24807H6.08248V6.27347H6.10788L6.14597 6.31156V6.33696H6.17137V6.36235H6.13327V6.33696H6.10788V6.31156H6.08248V6.28616L6.03169 6.26077L6.01899 6.22267H5.99359V6.19727H5.96819V6.15918Z" fill="#6C8392"/>
<path d="M5.49835 2.57812H5.51105V2.69241H5.48565V2.8067L5.46025 2.87019H5.44756V2.7432L5.46025 2.73051L5.48565 2.61622L5.49835 2.57812Z" fill="#9AA9B3"/>
<path d="M5.47295 10.4893H5.53645V10.5147L5.48565 10.5527H5.44756V10.5781H5.42216V10.5527H5.33327L5.37137 10.5274L5.39676 10.5147H5.47295V10.4893Z" fill="#3B5365"/>
<path d="M6.76819 6.70557H6.85708L7.06026 6.75636V6.76906H6.90787V6.74366H6.81899L6.76819 6.70557Z" fill="#778C99"/>
<path d="M9.20629 4.43213H9.21899L9.23169 4.6607H9.25708V4.60991H9.28248L9.29518 4.58451V4.648H9.26978L9.24439 4.71149L9.20629 4.72419V4.43213Z" fill="#A1ACB2"/>
<path d="M11.1238 3.35303H11.1365L11.1618 3.44192L11.1745 3.61969L11.1872 3.63239V3.78477H11.1745L11.1492 3.64509L11.1365 3.46731L11.1238 3.44192V3.35303Z" fill="#8D9DA7"/>
<path d="M6.05708 1.68945H6.10788V1.71485L5.99359 1.75295L5.9047 1.77834H5.81581L5.84121 1.75295L5.96819 1.71485H6.05708V1.68945Z" fill="#8697A2"/>
<path d="M6.51422 1.60059H6.65391L6.60311 1.62598L6.53962 1.63868H6.39994V1.66408H6.28565L6.33645 1.63868L6.50153 1.61328L6.51422 1.60059Z" fill="#617C8D"/>
<path d="M10.0698 6.22266H10.0952V6.33694H10.0698V6.42583L10.0444 6.45123H9.95549V6.41313H9.98089V6.43853L10.0571 6.41313V6.24805L10.0698 6.22266Z" fill="#A8B1B7"/>
<path d="M9.06661 4.90234H9.092V5.13092H9.06661L9.04121 5.04203L9.05391 5.01663L9.06661 4.90234Z" fill="#6A8292"/>
<path d="M8.45708 11.8354H8.54597V11.8481L8.45708 11.8735H8.38089V11.8989H8.22851L8.24121 11.8735L8.43169 11.8481L8.45708 11.8354Z" fill="#6B8291"/>
<path d="M7.47931 7.7085H7.5174V7.73389H7.492V7.79738H7.46661L7.492 7.91167V7.97516L7.45391 7.94977V7.74659L7.47931 7.7085Z" fill="#8EA1AD"/>
<path d="M10.4634 3.51807H10.4761L10.5015 3.60696V3.72124H10.5269V3.81013L10.5142 3.78473H10.4888L10.4761 3.67045L10.4634 3.64505V3.51807Z" fill="#80939F"/>
<path d="M9.1809 8.71191H9.20629V8.73731H9.1809V8.77541H9.1555V8.8008H9.1301L9.11741 8.8516L9.05391 8.8643L9.02852 8.87699L9.05391 8.8262H9.09201V8.8008H9.11741L9.1301 8.75001L9.1809 8.71191Z" fill="#7E929F"/>
<path d="M5.33327 4.96582L5.34597 5.01661H5.37137L5.39676 5.1309V5.21979H5.42216V5.27058H5.39676L5.35867 5.1563V5.04201H5.33327V4.96582Z" fill="#7E919E"/>
<path d="M7.42851 3.77197L7.4666 3.82277V4.08943H7.45391V3.92435H7.42851V3.77197Z" fill="#95A4AD"/>
<path d="M10.0952 3.46729L10.1333 3.51808V3.60697H10.1587V3.72125H10.1841V3.78475H10.1587L10.1079 3.54348L10.0952 3.53078V3.46729Z" fill="#9CA8B0"/>
<path d="M8.3174 3.07373L8.35549 3.12452L8.38089 3.20071V3.26421H8.40629V3.3531L8.38089 3.3277L8.36819 3.23881H8.34279V3.14992H8.3174V3.07373Z" fill="#8C9CA7"/>
<path d="M8.43169 2.8833L8.46978 2.896V2.94679H8.49518V3.01028H8.52058V3.08648H8.54597V3.12457H8.52058L8.48248 3.06108V2.98489H8.45708V2.9214H8.43169V2.8833Z" fill="#7C8E9A"/>
<path d="M7.36502 2.14648H7.45391L7.42851 2.15918V2.18458L7.26343 2.19728L7.25073 2.20998H7.17454V2.18458L7.35232 2.15918L7.36502 2.14648Z" fill="#90A1AB"/>
<path d="M4.99042 11.0864L5.02851 11.1245V11.1499H5.05391V11.3023H5.02851V11.3277L5.00311 11.315L5.02851 11.2642L5.01581 11.1499H4.96502V11.1245L4.99042 11.1118V11.0864Z" fill="#BEC1C3"/>
<path d="M7.65708 10.9214L7.68248 10.9468L7.72057 11.0611V11.1246H7.74597V11.1881L7.70787 11.15L7.68248 11.0865V11.0103H7.65708V10.9214Z" fill="#98A8B2"/>
<path d="M6.7428 6.81982H6.83168L6.90788 6.84522V6.85792H6.80629V6.88332H6.83168V6.90871H6.79359V6.88332H6.76819V6.85792H6.7428V6.81982Z" fill="#C0C3C4"/>
<path d="M9.49836 4.75H9.52375V4.7881H9.49836V4.85159L9.48566 4.86429V4.95317L9.49836 4.96587V5.04206L9.46026 4.99127V4.81349H9.48566L9.49836 4.75Z" fill="#8396A2"/>
<path d="M5.73962 4.03857H5.87931L5.82851 4.06397L5.68883 4.08937L5.67613 4.10207H5.58724L5.62534 4.07667L5.65074 4.06397H5.73962V4.03857Z" fill="#97A7B1"/>
<path d="M8.3682 1.68945H8.40629V1.71485H8.43169V1.74025H8.45709L8.46979 1.80374H8.49518L8.52058 1.91802H8.49518L8.48248 1.84183H8.45709V1.77834H8.43169V1.75295H8.40629V1.72755L8.3682 1.71485V1.68945Z" fill="#8E9EA9"/>
<path d="M4.21581 11.5181H4.24121L4.2793 11.6197V11.6958L4.25391 11.7593H4.24121V11.5562H4.21581V11.5181Z" fill="#587385"/>
<path d="M4.19041 11.4927H4.21581V11.5181H4.19041V11.5562H4.16502L4.15232 11.6197L4.12692 11.6832L4.07613 11.6705V11.6451H4.10152V11.607H4.12692V11.5816H4.15232L4.16502 11.5181L4.19041 11.4927Z" fill="#C0C3C4"/>
<path d="M7.25073 10.6421H7.26343V10.7818L7.25073 10.8072L7.23803 10.9215L7.22533 10.9469H7.19994V10.8961H7.22533V10.7437L7.25073 10.6421Z" fill="#9FABB2"/>
<path d="M4.05074 10.1846H4.07613V10.2227H4.10153V10.2608L4.15232 10.2862V10.3243L4.12693 10.375V10.3243H4.10153V10.2862H4.07613V10.2354H4.05074V10.1846Z" fill="#BABFC1"/>
<path d="M5.38406 3.09912H5.39676V3.2388L5.37137 3.35309L5.33327 3.37849V3.32769H5.35867V3.18801L5.38406 3.09912Z" fill="#9EACB5"/>
<path d="M11.4666 5.67676L11.4793 5.70215H11.5047V5.76565H11.5301V5.84184H11.5047V5.90533H11.4793L11.4666 5.93073V5.87993H11.492L11.4793 5.72755L11.4666 5.67676Z" fill="#8596A1"/>
<path d="M11.3015 5.61328H11.4031L11.4412 5.65138H11.2761V5.67677H11.238V5.65138L11.3015 5.61328Z" fill="#7A8D9A"/>
<path d="M7.5682 3.39111L7.59359 3.41651L7.60629 3.4927V3.64508L7.58089 3.63238L7.5682 3.5181V3.39111Z" fill="#677F8F"/>
<path d="M8.74914 2.83252H8.77454L8.81264 2.92141V2.9849H8.83803V3.07379L8.81264 3.03569L8.77454 2.94681V2.89601H8.74914V2.83252Z" fill="#7B8F9B"/>
<path d="M11.2761 2.48926H11.4158V2.52735L11.3015 2.50196V2.52735L11.2634 2.54005V2.62894L11.2761 2.66704H11.238V2.52735L11.2761 2.51465V2.48926Z" fill="#8C9CA6"/>
<path d="M3.64438 11.9497H3.66978L3.69518 12.0132H3.73327V12.0513H3.75867V12.0894H3.78407V12.1275H3.75867V12.1021H3.73327L3.70787 12.0386H3.68248L3.66978 11.9878H3.64438V11.9497Z" fill="#405C6F"/>
<path d="M7.63168 7.63232H7.69517L7.68248 7.65772H7.65708V7.68312H7.60629V7.70851L7.56819 7.74661H7.54279V7.70851H7.56819V7.65772L7.63168 7.63232Z" fill="#A3B0B7"/>
<path d="M6.28565 2.97217H6.36184L6.42533 3.01026V3.04836L6.38724 3.03566V3.01026H6.33644V2.98487H6.31105V3.01026H6.26025V3.03566H6.22216V3.01026L6.28565 2.97217Z" fill="#95A6B1"/>
<path d="M8.59677 11.9243H8.66026V11.9497L8.52058 11.9878H8.43169L8.46978 11.9497H8.59677V11.9243Z" fill="#8496A1"/>
<path d="M3.55549 9.89258L3.56819 9.91797H3.59359L3.61898 9.96877V10.0069H3.64438V10.0577H3.66978V10.0958H3.64438V10.0704L3.60629 10.0577L3.58089 9.96877L3.55549 9.95607V9.89258Z" fill="#587385"/>
<path d="M11.4666 3.78467H11.4793V3.97514H11.5047V4.01324H11.4793L11.4412 3.94975V3.81006H11.4666V3.78467Z" fill="#8396A2"/>
<path d="M5.38407 2.26074L5.39676 2.31154L5.38407 2.32423L5.37137 2.42582L5.33327 2.52741H5.30787V2.48931H5.33327V2.38773L5.38407 2.26074Z" fill="#7E919D"/>
<path d="M4.01264 11.6958H4.05074V11.7212L3.98724 11.7339V11.7593H3.93645V11.7847H3.87296V11.8101H3.84756V11.7593L3.96185 11.7466V11.7212H4.01264V11.6958Z" fill="#B8BEC0"/>
<path d="M6.06978 11.5815L6.08248 11.6196H6.05708V11.7466H6.08248L6.06978 11.7847V11.7593L6.01899 11.7339V11.645L6.04438 11.6069H6.06978V11.5815Z" fill="#7D909C"/>
<path d="M10.1714 7.13721H10.1841V7.2007H10.1587L10.1333 7.27689L10.0952 7.34038H10.0698V7.30229H10.0952V7.25149H10.1206L10.146 7.1626H10.1714V7.13721Z" fill="#8294A0"/>
<path d="M5.53645 2.93408H5.56184V3.09916H5.53645V3.06107H5.51105V2.99757H5.53645V2.93408Z" fill="#A2AFB6"/>
<path d="M8.97772 11.4927H9.04121L9.06661 11.5308V11.6197H9.04121V11.6451H9.01582V11.6705L8.97772 11.6578H9.00312V11.6324H9.02851V11.5308L8.97772 11.4927Z" fill="#7C919E"/>
<path d="M7.54279 10.3242L7.56819 10.3496L7.58089 10.4131V10.5528H7.56819V10.4893H7.54279V10.3242Z" fill="#A7B2B8"/>
<path d="M6.37454 10.2607H6.42533V10.2861L6.33644 10.3242H6.28565V10.3496H6.22216V10.3242L6.31105 10.3115V10.2861L6.37454 10.2607Z" fill="#8495A0"/>
<path d="M8.11423 7.77197L8.15232 7.82277L8.17772 7.84816V7.93705L8.16502 7.96245H8.13962L8.12692 7.98785V7.83546L8.11423 7.77197Z" fill="#C0C3C4"/>
<path d="M11.4412 5.93066L11.4666 5.94336L11.4031 5.99416H11.3015V5.96876L11.2761 5.95606L11.4158 5.94336L11.4412 5.93066Z" fill="#798C99"/>
<path d="M8.95232 5.53711H8.97772V5.5879H8.95232L8.93962 5.67679L8.90153 5.74028H8.88883V5.67679H8.91423L8.92693 5.6133L8.95232 5.53711Z" fill="#8B9CA6"/>
<path d="M6.74279 11.3276H6.83168V11.353H6.78089V11.3784H6.65391V11.353H6.74279V11.3276Z" fill="#95A3AC"/>
<path d="M9.1174 8.59717L9.1555 8.60987L9.1174 8.66066H9.09201V8.68606H9.06661V8.71145L9.01582 8.74955L8.97772 8.73685H9.00312V8.71145H9.02851V8.68606H9.05391L9.06661 8.64796H9.09201V8.62256H9.1174V8.59717Z" fill="#8A9BA6"/>
<path d="M10.146 4.69922H10.1587V4.8135L10.1333 4.90239H10.1079L10.0952 4.92779L10.1079 4.8643L10.1206 4.76271L10.146 4.69922Z" fill="#7D909C"/>
<path d="M8.57137 3.21338L8.58407 3.26417H8.60946V3.35306H8.63486V3.44195L8.59677 3.39116L8.57137 3.30227V3.21338Z" fill="#80939F"/>
<path d="M8.06343 1.60059H8.15232L8.292 1.65138L8.24121 1.66408L8.22851 1.65138L8.06343 1.62598V1.60059Z" fill="#778C99"/>
<path d="M3.44121 9.65137L3.4793 9.68946V9.74026H3.5047V9.80375H3.5301V9.84184L3.492 9.82914V9.77835H3.4666L3.44121 9.71486V9.65137Z" fill="#617B8D"/>
<path d="M3.32692 9.39746H3.35232L3.39042 9.48635L3.37772 9.52445L3.35232 9.46095H3.27613V9.43556H3.30153V9.41016L3.32692 9.39746Z" fill="#526D7F"/>
<path d="M5.1047 4.97852L5.14279 4.99121V5.1055H5.16819V5.18169L5.1301 5.15629V5.04201H5.1047V4.97852Z" fill="#8697A2"/>
<path d="M5.26978 4.15283L5.28248 4.20363L5.33328 4.17823H5.37137V4.15283H5.44756L5.39677 4.19093L5.34597 4.21632H5.30788V4.24172H5.28248L5.26978 4.15283Z" fill="#A1AEB6"/>
<path d="M5.47295 3.12451H5.48565V3.27689L5.46025 3.37848H5.44756V3.2134L5.47295 3.12451Z" fill="#9BAAB3"/>
<path d="M11.1237 2.17188L11.1618 2.18457L11.1491 2.20997H11.0984V2.23537H11.0095L10.9841 2.19727H11.1237V2.17188Z" fill="#8A9BA6"/>
<path d="M8.90153 11.353H8.97772V11.3784H9.04121V11.4038L9.092 11.4165H9.00311L8.90153 11.3784V11.353Z" fill="#80939F"/>
<path d="M4.85073 11.3022H4.87613V11.3276H5.00311V11.353H4.87613V11.3784H4.85073V11.3022Z" fill="#C0C3C4"/>
<path d="M8.82533 5.70215L8.83803 5.74024L8.81264 5.81643H8.78724L8.77454 5.87993H8.74914V5.90532H8.72375L8.74914 5.82913H8.77454L8.78724 5.77834L8.82533 5.70215Z" fill="#7A8E9B"/>
<path d="M9.70152 5.04199H9.72692V5.08009L9.68882 5.10548H9.54914V5.08009L9.52374 5.06739L9.63803 5.08009L9.70152 5.06739V5.04199Z" fill="#8E9EA8"/>
<path d="M7.5682 3.51807H7.58089L7.59359 3.63235L7.60629 3.64505V3.81013H7.59359L7.5682 3.67045V3.51807Z" fill="#ABB4BA"/>
<path d="M9.09201 3.50537H9.1174L9.1555 3.55616V3.58156H9.1809V3.60696H9.20629V3.63236L9.1428 3.60696V3.58156H9.09201V3.50537Z" fill="#93A1AA"/>
<path d="M3.87296 11.8354H3.92375V11.8608L4.10153 11.8735H4.12692V11.8989H3.96184V11.8735L3.89835 11.8608L3.87296 11.8354Z" fill="#95A3AC"/>
<path d="M6.33645 11.4165H6.48883L6.47613 11.4419H6.42533V11.4673H6.38724V11.4419H6.31105L6.33645 11.4165Z" fill="#AAB5BC"/>
<path d="M7.28883 10.9214H7.31423V11.0103H7.28883V11.0738L7.25073 11.0992V11.0357H7.27613L7.28883 10.9214Z" fill="#899AA5"/>
<path d="M5.65073 10.2354H5.73962V10.2607L5.67613 10.2988L5.59994 10.2861L5.65073 10.2607V10.2354Z" fill="#385060"/>
<path d="M8.59677 7.91162H8.63486V7.93702L8.52057 8.00051H8.49518V8.02591H8.45708V8.00051L8.52057 7.96241H8.54597V7.93702H8.59677V7.91162Z" fill="#8798A4"/>
<path d="M11.1745 4.7627H11.1872V4.86428L11.1745 4.87698L11.1618 4.96587H11.1365L11.1238 4.99127L11.1492 4.81349H11.1745V4.7627Z" fill="#91A0AA"/>
<path d="M11.5555 3.03564L11.5682 3.06104H11.5936V3.09914H11.619V3.18803L11.5809 3.21342V3.07374H11.5555V3.03564Z" fill="#708593"/>
<path d="M8.20311 2.80713H8.22851L8.2666 2.89602L8.292 3.0103L8.2539 2.97221V2.92141H8.22851V2.85792H8.20311V2.80713Z" fill="#798C98"/>
<path d="M5.73962 1.91797H5.81581L5.80311 1.94337L5.71422 1.95606V1.98146H5.67613V2.00686L5.62534 1.99416H5.65073V1.96876L5.68883 1.94337H5.73962V1.91797Z" fill="#96A7B1"/>
<path d="M7.79677 1.71484H7.99994L8.06343 1.74024V1.75294H7.97454L7.79677 1.72754V1.71484Z" fill="#516C7E"/>
<path d="M8.91422 11.6958H8.95232L8.93962 11.7339L8.81264 11.772L8.74914 11.7847L8.79994 11.7466L8.91422 11.6958Z" fill="#6B8292"/>
<path d="M3.32692 9.68945H3.35232L3.39042 9.75295V9.80374H3.41581L3.40311 9.85453L3.35232 9.77834L3.32692 9.72755V9.68945Z" fill="#7D96A6"/>
<path d="M6.97137 7.07373H6.99676L7.03486 7.13722V7.16262H7.06026V7.21341H7.08565V7.25151H7.06026L6.99676 7.13722V7.11183H6.97137V7.07373Z" fill="#C0C3C4"/>
<path d="M11.0603 5.27051H11.073V5.3594H11.0476L11.0349 5.44829L11.0095 5.47368V5.39749L11.0603 5.27051Z" fill="#81939E"/>
<path d="M8.43169 3.46729H8.45708L8.49518 3.60697L8.48248 3.64506L8.45708 3.61967L8.43169 3.54348V3.46729Z" fill="#9AA7AF"/>
<path d="M8.66026 2.57812L8.69835 2.62892L8.72375 2.69241V2.7813L8.66026 2.65432V2.57812Z" fill="#7C909C"/>
<path d="M8.20311 11.6958H8.36819L8.34279 11.7212L8.22851 11.7339L8.20311 11.7212V11.6958Z" fill="#91A3AF"/>
<path d="M8.66025 11.6069L8.69835 11.6196L8.66025 11.645H8.60946V11.6704H8.49517L8.52057 11.645L8.66025 11.6069Z" fill="#A1AEB6"/>
<path d="M4.85073 10.4004H5.0793V10.4131L4.96502 10.4258L4.87613 10.4385L4.85073 10.4258V10.4004Z" fill="#405C6F"/>
<path d="M3.98724 10.2607H4.01264L4.02534 10.3115H4.05073V10.3496H4.07613V10.375H4.10153V10.4131H4.07613V10.3877L4.03803 10.375L4.01264 10.2988H3.98724V10.2607Z" fill="#8799A4"/>
<path d="M7.36502 8.48291H7.42851L7.40311 8.50831L7.28882 8.5464H7.19994L7.25073 8.52101L7.36502 8.48291Z" fill="#405C6F"/>
<path d="M8.36819 7.72119L8.38089 7.75929L8.35549 7.82278V7.88627H8.38089V7.91167H8.34279L8.3174 7.79738L8.36819 7.72119Z" fill="#405C6F"/>
<path d="M10.9333 5.61328H10.9587L10.9333 5.72757L10.8952 5.79106H10.8698V5.75296H10.8952V5.70217H10.9206L10.9333 5.61328Z" fill="#718796"/>
<path d="M8.08883 3.6958H8.15232V3.7212H8.17772V3.74659H8.20311V3.78469H8.17772L8.16502 3.7339L8.06343 3.74659V3.7212H8.08883V3.6958Z" fill="#738896"/>
<path d="M9.35867 3.03564H9.49835V3.06104L9.52375 3.07374L9.40946 3.06104L9.35867 3.08644H9.32058V3.06104H9.35867V3.03564Z" fill="#95A3AC"/>
<path d="M8.79995 2.66748H8.81264L8.83804 2.74367V2.83256H8.86344V2.87066H8.83804L8.79995 2.78177V2.66748Z" fill="#7C909D"/>
<path d="M6.22216 11.4927H6.28565L6.23486 11.5308H6.19676V11.5562H6.14597V11.5816H6.10787V11.5562L6.17136 11.5181H6.22216V11.4927Z" fill="#758A98"/>
<path d="M8.17772 11.2388H8.26661V11.2642H8.20311V11.3023L8.13962 11.2896L8.11423 11.2642L8.17772 11.2769V11.2388Z" fill="#465F71"/>
<path d="M7.74597 9.71484H7.80946L7.77137 9.75294L7.70787 9.77834H7.63168L7.68248 9.74024L7.74597 9.71484Z" fill="#7A8D9A"/>
<path d="M7.86026 9.68945H7.97454V9.71485L7.86026 9.74025V9.68945Z" fill="#424C56"/>
<path d="M7.19994 8.71191H7.28883L7.23803 8.73731L7.22533 8.75001H7.13645V8.77541H7.08565V8.75001L7.19994 8.71191Z" fill="#405C6F"/>
<path d="M6.85708 6.93408H6.88248V6.95948H6.90787L6.94597 6.99757V7.02297H6.97137L6.95867 7.07376L6.93327 7.02297H6.90787V6.99757H6.88248V6.97218H6.85708V6.93408Z" fill="#C0C3C4"/>
<path d="M10.3999 5.05469H10.4126V5.13088H10.3872V5.19437L10.3491 5.24516V5.15627H10.3745L10.3872 5.08008L10.3999 5.05469Z" fill="#8A9AA5"/>
<path d="M9.34597 3.92432L9.37137 3.96241L9.38407 3.98781V4.12749H9.37137L9.34597 4.0386V3.92432Z" fill="#81939F"/>
<path d="M9.1428 3.87354L9.1682 3.92433L9.1809 3.93703V4.1275H9.1682L9.1428 3.94973V3.87354Z" fill="#557082"/>
<path d="M8.68565 2.34961L8.72375 2.4004V2.4639H8.74915V2.52739L8.71105 2.48929V2.4385H8.68565V2.34961Z" fill="#8899A4"/>
<path d="M7.79676 11.4927H7.86026V11.5181L7.80946 11.5308V11.5562H7.72057L7.77137 11.5181H7.79676V11.4927Z" fill="#6C8291"/>
<path d="M7.77137 10.8071L7.82216 10.8706L7.83486 10.9468H7.86026V10.9849H7.83486L7.82216 10.9214H7.79677V10.8579H7.77137V10.8071Z" fill="#99A6AE"/>
<path d="M6.26026 6.70557H6.31105V6.73096L6.36185 6.74366L6.39994 6.76906V6.79446H6.36185V6.76906H6.31105V6.74366L6.26026 6.71826V6.70557Z" fill="#7A8D9A"/>
<path d="M7.93645 6.59082H7.97455V6.61622L7.91106 6.65431H7.86026V6.67971H7.82217L7.83487 6.64161L7.92376 6.60352L7.93645 6.59082Z" fill="#8A9AA5"/>
<path d="M10.9841 2.94678L11.0222 2.95948V3.01027H11.0476V3.12456H11.0349V3.06106H11.0095V2.98487H10.9841V2.94678Z" fill="#8D9DA8"/>
<path d="M8.57137 2.03223L8.60946 2.08302V2.14651H8.63486V2.21L8.59677 2.17191V2.12112H8.57137V2.03223Z" fill="#8A9BA6"/>
<path d="M6.13327 11.8101H6.19677V11.8355L6.26026 11.8482L6.31105 11.8736H6.22216V11.8482L6.13327 11.8355V11.8101Z" fill="#798E9B"/>
<path d="M8.95232 11.5054H8.97771V11.5308H8.95232V11.5562H8.90152V11.5816H8.83803V11.5562L8.90152 11.5308L8.95232 11.5054Z" fill="#9EACB5"/>
<path d="M3.91105 9.15625L3.93645 9.16895V9.23244H3.96184V9.29593L3.92375 9.25784V9.20704L3.87296 9.19435V9.16895L3.91105 9.15625Z" fill="#8697A2"/>
<path d="M7.31422 7.59424H7.37771L7.36502 7.63233L7.26343 7.64503L7.19994 7.65773L7.25073 7.61964H7.31422V7.59424Z" fill="#758A97"/>
<path d="M10.2857 6.94678L10.2984 6.99757H10.273V7.04836H10.2476L10.2349 7.08646H10.2095L10.2349 7.02297L10.2857 6.94678Z" fill="#8899A4"/>
<path d="M8.49517 6.18457H8.52057V6.22267H8.49517V6.24806L8.43168 6.31155H8.40628V6.27346H8.43168V6.24806H8.45708V6.22267H8.48247L8.49517 6.18457Z" fill="#93A0A8"/>
<path d="M10.0571 5.47363H10.2095L10.1587 5.51173L10.0698 5.49903L10.0571 5.47363Z" fill="#8697A1"/>
<path d="M5.19359 5.30859H5.21899L5.25708 5.41018V5.47367L5.24438 5.44828H5.21899V5.35939H5.19359V5.30859Z" fill="#94A4AD"/>
<path d="M10.7555 3.35303H10.7809L10.819 3.49271L10.8063 3.53081L10.7809 3.49271V3.42922H10.7555V3.35303Z" fill="#97A5AD"/>
<path d="M8.54597 2.34961H8.58407L8.60946 2.4131V2.4639H8.63486L8.62216 2.50199L8.59677 2.48929V2.4385H8.57137L8.54597 2.34961Z" fill="#889AA5"/>
<path d="M8.3174 2.03223H8.38089L8.34279 2.07032H8.292V2.09572H8.20311L8.2539 2.08302V2.05762H8.3174V2.03223Z" fill="#7C8F9C"/>
<path d="M10.9206 1.91797H10.9333L10.9206 2.00686V2.14654H10.8952V1.95606H10.9206V1.91797Z" fill="#8697A2"/>
</svg>
