<svg width="7" height="13" viewBox="0 0 7 13" fill="none" xmlns="http://www.w3.org/2000/svg">
<path d="M6.20021 0.0556712V0.0567118C6.26101 0.0503312 6.32234 0.0595038 6.37711 0.0868887L6.45411 0.140999L6.51238 0.215921V0.216961L6.54256 0.292924C6.54943 0.319645 6.55296 0.347256 6.55296 0.37513C6.55295 0.430637 6.53864 0.484804 6.51238 0.533299L6.51134 0.53642L4.12424 4.31686H6.20021C6.26113 4.31046 6.32229 4.32165 6.37711 4.34912C6.4054 4.36332 6.43139 4.38166 6.45411 4.40323L6.51238 4.47711L6.51342 4.47919L6.54464 4.57388L6.54568 4.67378C6.5366 4.73697 6.50774 4.79465 6.46556 4.84235L6.4666 4.84339L1.14506 12.834L1.13777 12.8455L1.13673 12.8444C1.06643 12.9085 0.974793 12.9446 0.879707 12.9464H0.77773L0.766283 12.9412C0.715892 12.9163 0.673874 12.8783 0.643495 12.8319L0.61748 12.783C0.595478 12.7315 0.587525 12.6756 0.594587 12.6207L0.606034 12.5666L2.09407 7.08689H0.337563V7.08585C0.26045 7.073 0.188983 7.03783 0.132569 6.98387L0.126325 6.97763L0.122163 6.9693C0.1115 6.94809 0.101456 6.93047 0.0909453 6.91103C0.0809769 6.89258 0.0699644 6.87196 0.0628496 6.85068C0.0479359 6.80576 0.0496322 6.76033 0.074296 6.70708L1.66743 0.324142C1.67267 0.254611 1.70364 0.189091 1.75276 0.139958L1.79334 0.10666C1.8362 0.0770823 1.88636 0.0592209 1.93902 0.0556712H6.20021ZM0.769405 6.44797H2.47596C2.53102 6.44756 2.58502 6.46214 2.63205 6.49063C2.67428 6.51623 2.70707 6.55331 2.73194 6.59573L2.77877 6.65609C2.79108 6.67835 2.79974 6.70263 2.80479 6.72789L2.80791 6.80385C2.80539 6.82656 2.79789 6.84804 2.78918 6.86941L2.79126 6.87045L1.72362 10.8143L5.61124 4.95682H3.53736V4.95578C3.50975 4.95597 3.48252 4.95264 3.45619 4.94537L3.38127 4.91311C3.33411 4.88453 3.29604 4.84351 3.27097 4.79448V4.79553C3.24503 4.74683 3.23142 4.6915 3.23142 4.63632C3.23151 4.58131 3.2451 4.5267 3.27097 4.47815L3.27305 4.47503L5.66118 0.694589H2.20541L0.769405 6.44797Z" fill="#574D39" stroke="#574D39" stroke-width="0.1"/>
</svg>
