<svg width="26" height="26" viewBox="0 0 26 26" fill="none" xmlns="http://www.w3.org/2000/svg">
<path d="M25.4232 0.580005C25.1477 0.305269 24.7976 0.117464 24.4163 0.0398918C24.0351 -0.0376807 23.6394 -0.0016071 23.2785 0.143637L1.33008 8.70388C0.922853 8.85981 0.575254 9.14033 0.336847 9.50544C0.098439 9.87056 -0.0186044 10.3016 0.00240547 10.7372C0.0172835 11.1534 0.166357 11.5538 0.427383 11.8784C0.688409 12.203 1.0474 12.4345 1.45078 12.5384L9.80677 14.8409L11.3201 13.3368L15.656 9.00099C15.8336 8.84888 16.062 8.7694 16.2957 8.77843C16.5294 8.78745 16.751 8.88432 16.9164 9.04967C17.0817 9.21502 17.1786 9.43668 17.1876 9.67034C17.1966 9.90401 17.1172 10.1325 16.9651 10.3101L12.6292 14.6459L11.1437 16.1593L13.4463 24.5153C13.5441 24.9285 13.7753 25.298 14.1043 25.5665C14.4333 25.8351 14.8416 25.9877 15.266 26.0008H15.3681C15.7865 26.0005 16.1949 25.8735 16.5396 25.6365C16.8844 25.3995 17.1492 25.0636 17.2993 24.6731L25.8596 2.72471C26.0024 2.36337 26.0372 1.96833 25.9597 1.58758C25.8823 1.20684 25.6959 0.856795 25.4232 0.580005Z" fill="#574D39"/>
</svg>
