<svg width="12" height="14" viewBox="0 0 12 14" fill="none" xmlns="http://www.w3.org/2000/svg">
<path d="M5.99977 0C2.69141 0 0 2.69588 0 6.00972C0 9.04962 2.26518 11.5696 5.19395 11.9654L4.33462 12.4959C4.14025 12.6159 4.07942 12.8715 4.1997 13.0662C4.27791 13.1931 4.41328 13.2632 4.55231 13.2632C4.6264 13.2632 4.7014 13.2435 4.76908 13.2013L6.83807 11.9237C6.84081 11.9219 6.8431 11.92 6.84538 11.9187C6.85224 11.9141 6.8591 11.9095 6.86596 11.9045C6.87099 11.9008 6.87557 11.8971 6.88014 11.8935C6.88563 11.8889 6.89112 11.8843 6.89615 11.8797C6.90164 11.8751 6.90667 11.8701 6.9117 11.8651C6.91581 11.8609 6.91993 11.8568 6.92404 11.8522C6.92953 11.8467 6.93456 11.8408 6.93959 11.8348C6.94325 11.8307 6.94645 11.8261 6.94965 11.822C6.95423 11.8156 6.9588 11.8096 6.96338 11.8028C6.96658 11.7982 6.96978 11.7931 6.97252 11.7886C6.97618 11.7821 6.9803 11.7762 6.9835 11.7698C6.9867 11.7643 6.98944 11.7583 6.99219 11.7524C6.99493 11.7464 6.99768 11.7409 7.00042 11.735C7.00316 11.7281 7.00591 11.7212 7.00865 11.7143C7.01048 11.7088 7.01231 11.7038 7.01414 11.6983C7.01643 11.691 7.01871 11.6832 7.02054 11.6754C7.02191 11.6704 7.02329 11.6649 7.0242 11.6598C7.02603 11.652 7.0274 11.6447 7.02877 11.6369C7.02969 11.631 7.0306 11.6255 7.03106 11.6195C7.03197 11.6126 7.03243 11.6053 7.03289 11.5984C7.03335 11.5916 7.0338 11.5842 7.0338 11.5774C7.0338 11.5714 7.0338 11.5655 7.0338 11.5591C7.03335 11.5508 7.03289 11.5421 7.03243 11.5339C7.03197 11.5307 7.03243 11.5274 7.03198 11.5242C7.03198 11.5224 7.03106 11.5201 7.03106 11.5183C7.03015 11.5096 7.02832 11.5009 7.02694 11.4926C7.02603 11.4871 7.02512 11.4821 7.02374 11.4771C7.02191 11.4697 7.02009 11.4624 7.0178 11.4551C7.01597 11.4487 7.01414 11.4422 7.01185 11.4358C7.01002 11.4303 7.00774 11.4248 7.00545 11.4193C7.00225 11.4115 6.9995 11.4038 6.99585 11.3964C6.99402 11.3923 6.99173 11.3886 6.9899 11.3845C6.98533 11.3758 6.98075 11.3671 6.97618 11.3589C6.97527 11.3575 6.97481 11.3561 6.97389 11.3547L5.73269 9.31669C5.61378 9.12108 5.35905 9.0597 5.16376 9.1788C4.96848 9.29791 4.9072 9.55307 5.02611 9.74867L5.90373 11.1894C3.09615 11.1376 0.827776 8.83432 0.827776 6.00972C0.827776 3.15305 3.14829 0.82869 6.00023 0.82869C8.85217 0.82869 11.1727 3.15305 11.1727 6.00972C11.1727 7.74131 10.269 9.47794 8.87046 10.434C8.68158 10.5632 8.6331 10.8211 8.76207 11.0098C8.89104 11.1985 9.14852 11.2476 9.33694 11.1184C10.955 10.0121 12 8.007 12 6.00972C11.9995 2.69633 9.30813 0 5.99977 0Z" fill="black"/>
</svg>
