<svg width="16" height="11" viewBox="0 0 16 11" fill="none" xmlns="http://www.w3.org/2000/svg">
<path fill-rule="evenodd" clip-rule="evenodd" d="M7.66075 2.28453C9.88365 2.28462 12.0215 3.13875 13.6326 4.67038C13.7539 4.78863 13.9478 4.78714 14.0673 4.66704L15.2269 3.49668C15.2874 3.43577 15.3212 3.35325 15.3207 3.2674C15.3202 3.18155 15.2855 3.09944 15.2243 3.03924C10.9958 -1.01308 4.325 -1.01308 0.0965769 3.03924C0.0353252 3.0994 0.000571802 3.18148 6.99282e-06 3.26733C-0.000557817 3.35319 0.0331126 3.43572 0.0935674 3.49668L1.25356 4.66704C1.37296 4.78732 1.56702 4.78881 1.68826 4.67038C3.29949 3.13865 5.43763 2.28452 7.66075 2.28453ZM7.66074 6.09219C8.88208 6.09212 10.0598 6.54608 10.9652 7.36588C11.0876 7.48222 11.2805 7.4797 11.3999 7.36019L12.5582 6.18984C12.6192 6.12845 12.653 6.04517 12.6521 5.95863C12.6513 5.87209 12.6157 5.78952 12.5535 5.72938C9.7966 3.16492 5.52721 3.16492 2.77033 5.72938C2.70805 5.78952 2.67252 5.87213 2.6717 5.9587C2.67089 6.04526 2.70485 6.12854 2.76598 6.18984L3.92396 7.36019C4.04333 7.4797 4.23622 7.48222 4.35866 7.36588C5.26339 6.54662 6.44021 6.0927 7.66074 6.09219ZM9.98105 8.65409C9.98282 8.74087 9.94871 8.82453 9.88676 8.88533L7.88311 10.9074C7.82437 10.9668 7.7443 11.0002 7.66074 11.0002C7.57719 11.0002 7.49711 10.9668 7.43837 10.9074L5.43439 8.88533C5.37249 8.82449 5.33843 8.74079 5.34026 8.65401C5.3421 8.56723 5.37967 8.48506 5.44409 8.42689C6.72369 7.34459 8.59779 7.34459 9.87739 8.42689C9.94177 8.4851 9.97928 8.56731 9.98105 8.65409Z" fill="black"/>
</svg>
